<svg width="26" height="26" viewBox="0 0 26 26" fill="none" xmlns="http://www.w3.org/2000/svg">
<path d="M14.3601 11.638V3.84638H16.4851V8.02013L23.8953 0.609863L25.3882 2.10278L17.978 9.51305H22.1517V11.638H14.3601ZM23.5384 25.0418C20.8686 25.0418 18.1865 24.4211 15.4921 23.1797C12.7977 21.9383 10.3222 20.187 8.06552 17.9258C5.80884 15.6646 4.0598 13.189 2.8184 10.4992C1.577 7.80938 0.956299 5.12953 0.956299 2.45968C0.956299 2.03078 1.09797 1.67337 1.3813 1.38744C1.66463 1.10151 2.0188 0.958539 2.4438 0.958539H7.06426C7.42206 0.958539 7.73763 1.07524 8.01098 1.30863C8.28433 1.54203 8.45822 1.83036 8.53267 2.17362L9.34452 6.34184C9.40084 6.72871 9.38903 7.06108 9.30911 7.33896C9.22921 7.61684 9.08572 7.85022 8.87865 8.03911L5.60672 11.2239C6.13344 12.1883 6.73507 13.1005 7.41162 13.9605C8.08818 14.8205 8.82057 15.6419 9.6088 16.4247C10.3862 17.2021 11.2126 17.924 12.088 18.5906C12.9634 19.2572 13.9088 19.8774 14.9241 20.4513L18.1034 17.2448C18.325 17.0141 18.5933 16.8525 18.9084 16.7598C19.2236 16.6672 19.5509 16.6445 19.8906 16.6917L23.8245 17.4927C24.1823 17.5871 24.4743 17.7696 24.7004 18.0402C24.9265 18.3109 25.0396 18.6178 25.0396 18.9611V23.5543C25.0396 23.9793 24.8966 24.3335 24.6107 24.6168C24.3247 24.9001 23.9673 25.0418 23.5384 25.0418ZM4.60145 9.21335L7.12967 6.79411C7.17508 6.75777 7.20459 6.70782 7.21821 6.64426C7.23184 6.58068 7.22957 6.52165 7.21141 6.46718L6.59569 3.30146C6.57754 3.22881 6.54576 3.17433 6.50035 3.13801C6.45495 3.10167 6.39592 3.0835 6.32327 3.0835H3.29376C3.23929 3.0835 3.19389 3.10167 3.15755 3.13801C3.12121 3.17433 3.10304 3.21973 3.10304 3.27422C3.1757 4.24228 3.33416 5.22578 3.57844 6.22472C3.82275 7.22365 4.16375 8.21987 4.60145 9.21335ZM16.9264 21.4566C17.8654 21.8943 18.8448 22.229 19.8647 22.4605C20.8845 22.6921 21.8376 22.8297 22.7239 22.8732C22.7784 22.8732 22.8238 22.8551 22.8601 22.8188C22.8964 22.7824 22.9146 22.737 22.9146 22.6825V19.7021C22.9146 19.6295 22.8964 19.5704 22.8601 19.525C22.8238 19.4796 22.7693 19.4478 22.6966 19.4296L19.7216 18.8248C19.6672 18.8067 19.6195 18.8044 19.5786 18.818C19.5378 18.8317 19.4946 18.8612 19.4492 18.9066L16.9264 21.4566Z" fill="white"/>
</svg>
