<svg width="40" height="50" viewBox="0 0 40 50" fill="none" xmlns="http://www.w3.org/2000/svg">
<path d="M18.7653 40.3723H21.515V32.1233H29.7639V29.3737H21.515V21.1247H18.7653V29.3737H10.5164V32.1233H18.7653V40.3723ZM5.3343 49.9961C4.06877 49.9961 3.0121 49.5722 2.16429 48.7244C1.31648 47.8766 0.892578 46.8199 0.892578 45.5544V4.94404C0.892578 3.67851 1.31648 2.62184 2.16429 1.77403C3.0121 0.926224 4.06877 0.502319 5.3343 0.502319H27.0143L39.3877 12.8758V45.5544C39.3877 46.8199 38.9638 47.8766 38.116 48.7244C37.2682 49.5722 36.2115 49.9961 34.946 49.9961H5.3343ZM25.6395 14.2506V3.25197H5.3343C4.91131 3.25197 4.52354 3.42823 4.17099 3.78073C3.81849 4.13328 3.64223 4.52105 3.64223 4.94404V45.5544C3.64223 45.9774 3.81849 46.3651 4.17099 46.7177C4.52354 47.0702 4.91131 47.2464 5.3343 47.2464H34.946C35.369 47.2464 35.7568 47.0702 36.1093 46.7177C36.4618 46.3651 36.6381 45.9774 36.6381 45.5544V14.2506H25.6395Z" fill="#00A3AD"/>
</svg>
