<svg width="85" height="97" viewBox="0 0 85 97" fill="none" xmlns="http://www.w3.org/2000/svg">
<path d="M35.4204 42.1697C37.3867 43.5314 40.4066 44.379 43.3038 44.379C46.201 44.379 50.8193 42.9317 52.4132 40.8532L52.445 40.8126L49.2163 30.7988C48.2218 27.7464 46.7504 25.8528 42.5 25.8528C39.3303 25.8528 37.1052 27.4489 35.8882 30.5959L33.881 36.0785C32.9864 38.4456 33.604 40.8938 35.4204 42.1697ZM35.9654 36.8405L37.9725 31.3624C38.8535 29.0314 40.2067 28.035 42.5 28.035C45.2292 28.035 46.2237 28.7699 47.1274 31.4571L49.9156 40.1634C48.4125 41.3221 45.5879 42.1923 43.3038 42.1923C40.8561 42.1923 38.3631 41.5295 36.6375 40.4204C35.8337 39.8027 35.3478 38.3734 35.9654 36.8405Z" fill="#00A3AD"/>
<path d="M49.4253 46.2863H36.7784C33.7495 46.2863 30.2847 47.6163 29.658 51.3495L26.2295 72.9687L31.5516 73.7667L30.648 79.4612H33.0774L33.2773 97H40.3841L41.7872 79.4612H43.5174L45.2158 96.9144L45.2248 97H52.5314L52.4315 79.4612H55.0563L54.1481 73.7667L59.6746 72.9822L59.7699 72.9687L56.5412 51.4487C56.0281 48.216 53.367 46.2863 49.4208 46.2863H49.4253ZM35.2708 79.4612H39.6847L38.3951 94.8178H35.4661L35.2662 79.4612H35.2708ZM34.3898 57.2334L31.8786 71.6882L28.6544 71.2193L31.8514 51.7823C32.2056 49.6768 33.9993 48.473 36.7784 48.473H49.4253C51.428 48.473 53.9074 49.0456 54.3479 51.7823L57.345 71.2193L53.9165 71.6927L51.4234 57.3325L51.4053 57.2379L49.2119 57.6752L52.4225 77.288H33.2773L36.5695 57.7654L36.5832 57.6752L34.3853 57.2379L34.3898 57.2334ZM50.2337 79.4612L50.3336 94.8178H47.2048L45.7198 79.4612H50.2382H50.2337Z" fill="#00A3AD"/>
<path d="M8.46013 14.6127C9.25936 15.4062 12.7969 17.2277 15.3626 17.5298C17.8556 17.2322 21.4158 15.4378 22.2469 14.509L22.265 14.4774C23.4729 10.875 23.4729 8.29148 23.4729 4.38245L23.4639 4.34638C22.1787 1.37966 19.5994 0 15.3535 0C11.1076 0 8.52824 1.37966 7.23857 4.34187L7.22949 4.37794C7.22949 8.28698 7.22949 10.8705 8.43742 14.5721L8.46013 14.6082V14.6127ZM9.42738 4.80176C10.4083 2.96672 12.1838 2.18221 15.3535 2.18221C18.5232 2.18221 20.2987 2.96672 21.2796 4.80176C21.2796 8.42675 21.2796 10.4376 20.2896 13.49C19.4859 14.0716 17.0337 15.05 15.3535 15.3476C13.6733 15.05 11.2166 14.0716 10.4173 13.49C9.43192 10.4376 9.42738 8.43125 9.42738 4.80176Z" fill="#00A3AD"/>
<path d="M29.8213 44.334L29.9076 44.3205L28.4998 22.7103C28.3227 19.3874 26.6335 17.8364 23.1868 17.8364H6.7208C3.26958 17.8364 1.5803 19.3829 1.40319 22.7103L0 44.2348V44.3205L6.32119 45.4161L5.72176 70.5475V70.6422H12.6288L14.7404 49.6182H15.1718L17.2788 70.6422H24.3902L23.5864 45.4161L29.8304 44.334H29.8213ZM7.91965 68.46L8.82332 37.2554L8.31472 27.8908L6.11684 28.1117L6.62544 37.2599L6.43017 43.3286L2.40677 42.5666L3.60562 23.1161C3.70098 21.0105 4.04156 20.0141 6.72534 20.0141H23.1868C25.8706 20.0141 26.2066 21.006 26.302 23.1161L27.5053 42.5666L23.4819 43.3286L23.2867 37.2689L23.7953 28.1117L21.5974 27.8908L21.0888 37.2554L22.1877 68.46H19.2633L17.1608 47.5171L17.1517 47.4315H12.765L10.6579 68.46H7.92873H7.91965Z" fill="#00A3AD"/>
<path d="M84.9958 44.3205L83.5881 22.7103C83.411 19.3874 81.7217 17.8364 78.275 17.8364H61.8136C58.3624 17.8364 56.6731 19.3829 56.496 22.7103L55.0928 44.2348V44.3205L61.414 45.4161L60.8145 70.5475V70.6422H67.7215L69.8331 49.6182H70.2645L72.3716 70.6422H79.4829L78.6792 45.4161L84.9232 44.334L85.0094 44.3205H84.9958ZM63.0124 68.4645L63.9161 37.2599L63.4075 27.8953L61.2096 28.1162L61.7182 37.2644L61.5229 43.3331L57.4995 42.5711L58.6984 23.1206C58.7938 21.0151 59.1343 20.0186 61.8181 20.0186H78.2795C80.9633 20.0186 81.2994 21.0105 81.3947 23.1206L82.5981 42.5711L78.5747 43.3331L78.3795 37.2734L78.8881 28.1162L76.6902 27.8953L76.1816 37.2599L77.2805 68.4645H74.3561L72.2535 47.5217L72.2444 47.436H67.8578L65.7462 68.4645H63.017H63.0124Z" fill="#00A3AD"/>
<path d="M63.5526 14.6127C64.3518 15.4062 67.8893 17.2277 70.455 17.5298C72.9481 17.2322 76.5083 15.4378 77.3393 14.509L77.3575 14.4774C78.5654 10.875 78.5654 8.29149 78.5654 4.38246L78.5563 4.34639C77.2621 1.38418 74.6828 0.0045166 70.4414 0.0045166C66.2 0.0045166 63.6161 1.38418 62.3265 4.34639L62.3174 4.38246C62.3174 8.29149 62.3174 10.875 63.5253 14.5766L63.548 14.6127H63.5526ZM64.5198 4.80176C65.5007 2.96673 67.2762 2.18221 70.4459 2.18221C73.6156 2.18221 75.3912 2.96673 76.372 4.80176C76.372 8.42675 76.372 10.4376 75.3821 13.49C74.5783 14.0716 72.1261 15.05 70.4459 15.3476C68.7657 15.05 66.309 14.0716 65.5098 13.49C64.5243 10.4376 64.5198 8.43126 64.5198 4.80176Z" fill="#00A3AD"/>
</svg>
