<svg width="57" height="65" viewBox="0 0 57 65" fill="none" xmlns="http://www.w3.org/2000/svg">
<path d="M43.2891 61.4508V40.4288H40.043V61.4508C40.043 62.3154 40.8148 63.0662 41.6547 63.0662C42.4946 63.0662 43.2664 62.2926 43.2664 61.4508M37.0012 7.25761C34.2318 6.30207 31.3716 5.82429 28.4205 5.82429C26.3321 5.82429 24.221 6.12006 22.1326 6.59783V18.6332C24.1302 17.7686 26.2413 17.2909 28.4205 17.2909C30.8949 17.2909 33.3919 17.8596 35.5711 19.02L37.0012 7.25761ZM38.1362 44.16C35.276 46.4578 31.8483 47.5954 28.4205 47.5954C23.4719 47.5954 20.2258 45.7753 16.8889 42.3399V56.3773C20.5209 58.1974 24.5161 58.971 28.4205 58.971C31.7575 58.971 35.0036 58.4022 38.1362 57.1509V44.16ZM14.9594 0.477774H16.8662V16.3353H14.9594V0.477774ZM14.9594 61.4508V40.4288H11.7133V61.4508C11.7133 62.3154 12.4851 63.0662 13.325 63.0662C14.0968 63.0662 14.9367 62.2016 14.9367 61.4508M9.71566 0.477774H11.6225V16.3353H9.71566V0.477774ZM9.82916 61.4508V53.9884C3.06452 47.2996 0 40.9976 0 32.2839C0 27.0284 1.52091 21.7728 4.47193 17.0861V0.477774H6.37874V18.5422C6.37874 20.749 6.94624 21.7046 7.62724 22.4554L10.3059 25.231C11.6452 26.5733 11.9176 27.7109 11.9176 29.9177V35.9468H10.0108V29.9177C10.0108 28.0067 9.82915 27.4379 8.96655 26.5733L6.19713 23.7067C5.06213 22.4554 4.85783 21.2268 4.67623 20.4533C2.86022 24.1845 1.90681 28.1887 1.90681 32.3066C1.90681 39.2912 4.58543 46.1621 9.82916 51.4176V38.5177H16.8889V39.2002C19.5675 43.3182 23.3811 45.798 28.4205 45.798C32.1434 45.798 35.276 44.4557 38.1362 41.5891V38.5404H45.1959V53.0784C51.4839 47.6409 54.9116 40.7473 54.9116 32.5341C54.9116 24.321 51.0072 16.1988 45.1959 11.9899V34.2632H43.2891V1.9111H39.6571L36.0251 30.2135C35.8435 31.4648 37.1601 32.9892 38.4994 33.2622L38.1135 35.1733C36.0251 34.6955 33.8232 32.3066 34.1183 30.0088L35.2533 21.0221C33.1649 19.7707 30.7814 19.111 28.3979 19.111C26.0143 19.111 23.9259 19.5887 21.9056 20.6353C21.8148 21.1131 21.3381 22.6374 20.3847 23.6839L17.6153 26.5506C16.7527 27.5061 16.5711 27.9839 16.5711 29.895V35.924H14.6643V29.895C14.6643 27.6881 14.9594 26.5506 16.276 25.2083L18.9546 22.4326C19.6129 21.6591 20.2031 20.7035 20.2031 18.5194V0.477774H22.1099V4.68673C24.1983 4.20896 26.3094 4.02695 28.3979 4.02695C31.3489 4.02695 34.4134 4.50473 37.2736 5.46027L37.9319 0H45.1732V9.46447C52.8005 15.1978 56.7049 23.5019 56.7049 32.4886C56.7049 41.4753 52.5054 49.8932 45.1732 55.4218V61.4508C45.1732 63.2709 43.448 64.9772 41.632 64.9772C39.816 64.9772 38.1135 63.2482 38.1135 61.4508V59.153C34.9582 60.2905 31.6213 60.882 28.3979 60.882C24.4934 60.882 20.589 60.1085 16.8662 58.4932V61.4508C16.8662 63.2709 15.0502 64.9772 13.3477 64.9772C11.5317 64.9772 9.82916 63.2482 9.82916 61.4508Z" fill="#0094A6"/>
</svg>
