<svg width="52" height="44" viewBox="0 0 52 44" fill="none" xmlns="http://www.w3.org/2000/svg">
<path d="M35.9937 28.0896C34.1393 28.0896 32.5585 27.4406 31.2514 26.1426C29.9443 24.8445 29.2907 23.2683 29.2907 21.4139C29.2907 19.5595 29.9398 17.9787 31.2378 16.6716C32.5359 15.3645 34.1121 14.711 35.9665 14.711C37.8209 14.711 39.4017 15.36 40.7088 16.658C42.0159 17.9561 42.6694 19.5323 42.6694 21.3868C42.6694 23.2411 42.0204 24.8219 40.7223 26.129C39.4243 27.4361 37.8481 28.0896 35.9937 28.0896ZM20.2947 43.775V40.3841C20.2947 39.7314 20.4581 39.1098 20.7849 38.5193C21.1117 37.9287 21.5519 37.4547 22.1055 37.0972C24.2007 35.9015 26.399 34.9856 28.7003 34.3493C31.0016 33.7131 33.4282 33.395 35.9801 33.395C38.532 33.395 40.9587 33.7131 43.2599 34.3493C45.5612 34.9856 47.7595 35.9015 49.8547 37.0972C50.4083 37.4547 50.8485 37.9287 51.1753 38.5193C51.5021 39.1098 51.6654 39.7314 51.6654 40.3841V43.775H20.2947ZM23.3972 39.8537V40.7763H48.5629V39.8537C46.5831 38.7388 44.5321 37.8834 42.41 37.2875C40.2878 36.6916 38.1445 36.3937 35.9801 36.3937C33.8157 36.3937 31.6724 36.6916 29.5503 37.2875C27.4282 37.8834 25.3771 38.7388 23.3972 39.8537ZM35.9801 25.0909C36.9835 25.0909 37.8495 24.7267 38.578 23.9981C39.3065 23.2696 39.6708 22.4037 39.6708 21.4003C39.6708 20.3969 39.3065 19.531 38.578 18.8024C37.8495 18.0739 36.9835 17.7096 35.9801 17.7096C34.9767 17.7096 34.1108 18.0739 33.3823 18.8024C32.6537 19.531 32.2895 20.3969 32.2895 21.4003C32.2895 22.4037 32.6537 23.2696 33.3823 23.9981C34.1108 24.7267 34.9767 25.0909 35.9801 25.0909ZM0.0537109 27.7436V24.745H21.0445V27.7436H0.0537109ZM0.0537109 3.75428V0.755615H33.0391V3.75428H0.0537109ZM23.478 15.749H0.0537109V12.7503H25.1964C24.8427 13.2155 24.5207 13.6883 24.2305 14.1689C23.9403 14.6495 23.6894 15.1762 23.478 15.749Z" fill="#00A3AD"/>
</svg>
