<svg width="49" height="41" viewBox="0 0 49 41" fill="none" xmlns="http://www.w3.org/2000/svg">
<path d="M3.96152 34.125C2.86842 34.125 1.95573 33.7589 1.22344 33.0266C0.491146 32.2943 0.125 31.3816 0.125 30.2885V4.71152C0.125 3.61842 0.491146 2.70573 1.22344 1.97344C1.95573 1.24115 2.86842 0.875 3.96152 0.875H39.0385C40.1316 0.875 41.0443 1.24115 41.7766 1.97344C42.5089 2.70573 42.875 3.61842 42.875 4.71152V15.5818H2.5V30.2885C2.5 30.6538 2.65224 30.9888 2.95671 31.2933C3.26123 31.5978 3.59616 31.75 3.96152 31.75H24.3318V34.125H3.96152ZM2.5 9.91823H40.5V4.71152C40.5 4.34616 40.3478 4.01123 40.0433 3.70671C39.7388 3.40224 39.4038 3.25 39.0385 3.25H3.96152C3.59616 3.25 3.26123 3.40224 2.95671 3.70671C2.65224 4.01123 2.5 4.34616 2.5 4.71152V9.91823ZM39.3125 40.0625V32.9375H32.1875V30.5625H39.3125V23.4375H41.6875V30.5625H48.8125V32.9375H41.6875V40.0625H39.3125Z" fill="#00A3AD"/>
</svg>
