<svg width="48" height="47" viewBox="0 0 48 47" fill="none" xmlns="http://www.w3.org/2000/svg">
<circle cx="24.1541" cy="23.2088" r="23.2088" fill="white"/>
<path d="M27.7079 28.6416C22.8051 28.6416 18.8163 24.6514 18.8149 19.7486C18.8163 18.5058 19.8283 17.4951 21.0684 17.4951C21.1959 17.4951 21.322 17.5059 21.4428 17.5273C21.7086 17.5716 21.9609 17.6615 22.1931 17.7971C22.2267 17.8172 22.2495 17.8494 22.2548 17.887L22.7729 21.1524C22.7796 21.1914 22.7675 21.2289 22.742 21.2571C22.4562 21.5739 22.0911 21.802 21.6844 21.9161L21.4885 21.9711L21.5623 22.1604C22.2307 23.8622 23.5916 25.2218 25.2948 25.8929L25.484 25.968L25.539 25.7721C25.6531 25.3654 25.8813 25.0003 26.198 24.7145C26.2208 24.693 26.2517 24.6823 26.2826 24.6823C26.2893 24.6823 26.296 24.6823 26.3041 24.6836L29.5695 25.2017C29.6084 25.2084 29.6406 25.2298 29.6608 25.2634C29.795 25.4956 29.8849 25.7493 29.9305 26.015C29.952 26.1331 29.9614 26.2579 29.9614 26.3881C29.9614 27.6296 28.9508 28.6402 27.7079 28.6416Z" fill="#003E51"/>
<path d="M36.4024 21.9633C36.138 18.9757 34.769 16.2042 32.5478 14.1601C30.3131 12.104 27.4141 10.9712 24.3822 10.9712C17.7279 10.9712 12.3137 16.3854 12.3137 23.0397C12.3137 25.273 12.9297 27.4486 14.0961 29.3437L11.495 35.1015L19.823 34.2143C21.2711 34.8076 22.8038 35.1082 24.3808 35.1082C24.7956 35.1082 25.221 35.0867 25.6478 35.0424C26.0236 35.0021 26.4035 34.9431 26.7766 34.8679C32.3491 33.7419 36.4171 28.7961 36.4493 23.1041V23.0397C36.4493 22.6773 36.4332 22.3149 36.401 21.9646L36.4024 21.9633ZM20.1437 31.6871L15.5362 32.1783L16.9119 29.1303L16.6367 28.7612C16.6166 28.7344 16.5965 28.7075 16.5736 28.6767C15.3791 27.0272 14.7483 25.0784 14.7483 23.041C14.7483 17.7289 19.07 13.4072 24.3822 13.4072C29.3588 13.4072 33.5772 17.29 33.9838 22.2465C34.0053 22.5122 34.0174 22.7793 34.0174 23.0424C34.0174 23.1175 34.016 23.1914 34.0147 23.2705C33.9127 27.7144 30.8083 31.4884 26.4652 32.4494C26.1337 32.5232 25.7941 32.5796 25.4559 32.6158C25.1043 32.6561 24.7432 32.6762 24.3849 32.6762C23.1085 32.6762 21.8684 32.4293 20.6967 31.9407C20.5665 31.8884 20.439 31.832 20.3195 31.7743L20.1451 31.6898L20.1437 31.6871Z" fill="#003E51"/>
</svg>
