<svg width="38" height="27" viewBox="0 0 38 27" fill="none" xmlns="http://www.w3.org/2000/svg">
<path d="M34.4688 27H8.5859V25.7319H34.4688V27ZM6.94134 1.27248V8.05179C6.94134 14.6444 11.0235 20.3466 16.6834 22.5615H27.0975C32.7616 20.3423 36.7812 14.64 36.7812 8.05179V1.27248H6.94134ZM5.72254 8.05179V3.36143H4.01955C2.49605 3.36143 1.2188 4.69037 1.2188 6.27554V8.93775C1.2188 10.5229 2.50022 11.917 4.01955 11.917H6.15246C5.90619 10.6532 5.72254 9.38507 5.72254 8.05179ZM38 8.05179C38 15.2741 33.4921 21.4845 27.3438 23.8297H16.4413C11.8124 22.0577 8.09754 18.1274 6.5156 13.1851H4.01955C1.88664 13.1851 0 11.157 0 8.93775V6.27554C0 4.0563 1.88664 2.09329 4.01955 2.09329H5.72254V0H38V8.05179Z" fill="#00A3AD"/>
</svg>
