<svg width="46" height="42" viewBox="0 0 46 42" fill="none" xmlns="http://www.w3.org/2000/svg">
<path d="M0.0264893 37.726V0.538574H20.2139V9.03858H40.9735V26.3655H37.786V12.226H20.2139V17.5386H24.8726V20.726H20.2139V26.0386H24.8726V29.226H20.2139V34.5386H29.5313V37.726H0.0264893ZM3.21388 34.5386H8.52644V29.226H3.21388V34.5386ZM3.21388 26.0386H8.52644V20.726H3.21388V26.0386ZM3.21388 17.5386H8.52644V12.226H3.21388V17.5386ZM3.21388 9.03858H8.52644V3.72602H3.21388V9.03858ZM11.7139 34.5386H17.0264V29.226H11.7139V34.5386ZM11.7139 26.0386H17.0264V20.726H11.7139V26.0386ZM11.7139 17.5386H17.0264V12.226H11.7139V17.5386ZM11.7139 9.03858H17.0264V3.72602H11.7139V9.03858ZM37.786 41.976V37.726H33.536V34.5386H37.786V30.2886H40.9735V34.5386H45.2235V37.726H40.9735V41.976H37.786ZM29.5313 20.726V17.5386H32.7187V20.726H29.5313ZM29.5313 29.226V26.0386H32.7187V29.226H29.5313Z" fill="#00A3AD"/>
</svg>
