<svg width="92" height="91" viewBox="0 0 92 91" fill="none" xmlns="http://www.w3.org/2000/svg">
<path d="M31.6715 64.8522L33.119 91.005H23.9165L21.1558 66.5717L18.6587 60.4934L13.7938 91.005H4.59627L7.09338 56.2695L0 55.3448L1.96983 28.6621C2.23347 24.4383 6.0438 21.929 10.645 22.0589L55.7273 22.8487V32.3561L29.1793 32.4861L29.05 46.7522L31.6765 64.8472L31.6715 64.8522ZM26.543 29.8518L53.0959 29.7218V25.493L10.645 24.7032C7.09338 24.5732 4.73058 26.2878 4.59627 28.9271L2.89008 52.9654L7.35702 53.6253L7.88429 46.2323L8.0186 34.3456H10.645L10.5107 46.3673L7.49132 88.3657H11.436L16.4302 57.1993H20.1112L23.7922 65.7819L26.2893 88.3657H30.2339L29.05 65.1221L26.4236 47.0271M10.9137 16.6504C10.2521 15.0659 9.33679 8.06778 9.33679 4.63373C10.9087 1.4546 14.1917 0 18.1364 0C22.081 0 25.2297 1.4546 26.8066 4.62373C26.9409 8.18775 26.0207 14.7909 25.2297 16.5105C24.3095 18.4899 19.8376 19.9445 18.1364 20.2094C15.5049 19.8146 11.6946 18.4949 10.9087 16.6454L10.9137 16.6504ZM11.9632 5.42351C11.9632 8.7226 12.8835 14.536 13.2765 15.5907C13.5401 16.1206 16.3008 17.1753 18.1413 17.5702C19.8475 17.1753 22.6083 16.1156 22.8719 15.5907C23.2649 14.536 24.1851 8.7226 24.1851 5.42351C23.0012 3.30909 21.1657 2.64927 18.1413 2.64927C15.117 2.64927 13.1471 3.30909 11.9632 5.42351ZM92.005 9.25246V60.2335C92.005 62.7428 89.6422 65.2521 87.1401 65.2521H46.2661C43.769 65.2521 41.2719 62.7428 41.2719 60.2335V35.1403H43.8984V60.2335C43.8984 61.4231 45.0822 62.6078 46.2661 62.6078H87.1401C88.1946 62.6078 89.3785 61.4181 89.3785 60.2335V11.8867H43.8984V19.6796H41.2719V9.24746H92.005V9.25246ZM54.4141 68.0263H57.1748L54.6777 91.01H52.0513L54.4141 68.0263ZM59.1446 48.3467V54.8199H55.8616V48.3467H59.1446ZM67.9492 6.60818H65.3227V1.4546H67.9492V6.60818ZM68.6108 36.7199V54.8149H65.3227V36.7199H68.6108ZM78.0719 20.8743V54.8199H74.7889V20.8693H78.0719V20.8743ZM78.9971 68.0213L81.2306 91.005H78.5992L76.2364 68.0213H78.9971Z" fill="#00A3AD"/>
</svg>
