<svg width="43" height="34" viewBox="0 0 43 34" fill="none" xmlns="http://www.w3.org/2000/svg">
<path d="M0.879578 30.7677V26.9588C0.879578 25.7752 1.17028 24.8245 1.75169 24.1067C2.33311 23.3888 3.06877 22.8 3.95868 22.3402C5.92539 21.3375 7.86095 20.5633 9.76538 20.0175C11.6698 19.4717 14.1066 19.1988 17.076 19.1988C18.2328 19.1988 19.257 19.2344 20.1484 19.3056C21.0398 19.3768 21.8281 19.4836 22.5133 19.626L20.422 21.7173C19.9978 21.6401 19.4943 21.5867 18.9114 21.5571C18.3285 21.5274 17.7167 21.5125 17.076 21.5125C14.338 21.5125 11.9983 21.7958 10.0568 22.3625C8.11531 22.929 6.45044 23.5979 5.06218 24.3692C4.35914 24.74 3.87192 25.1286 3.60051 25.535C3.32907 25.9413 3.19335 26.416 3.19335 26.9588V28.4539H16.7645L19.0783 30.7677H0.879578ZM29.4724 33.295L23.0918 26.9143L24.7292 25.2769L29.4724 30.0201L41.157 18.3356L42.7944 19.973L29.4724 33.295ZM17.076 14.0373C15.1671 14.0373 13.533 13.3577 12.1737 11.9983C10.8143 10.639 10.1347 9.00489 10.1347 7.09603C10.1347 5.18713 10.8143 3.55301 12.1737 2.19367C13.533 0.834333 15.1671 0.154663 17.076 0.154663C18.9848 0.154663 20.6189 0.834333 21.9783 2.19367C23.3377 3.55301 24.0173 5.18713 24.0173 7.09603C24.0173 9.00489 23.3377 10.639 21.9783 11.9983C20.6189 13.3577 18.9848 14.0373 17.076 14.0373ZM17.076 11.7236C18.3485 11.7236 19.4379 11.2705 20.3442 10.3642C21.2504 9.458 21.7035 8.3686 21.7035 7.09603C21.7035 5.82346 21.2504 4.73406 20.3442 3.82783C19.4379 2.92161 18.3485 2.46849 17.076 2.46849C15.8034 2.46849 14.714 2.92161 13.8078 3.82783C12.9015 4.73406 12.4484 5.82346 12.4484 7.09603C12.4484 8.3686 12.9015 9.458 13.8078 10.3642C14.714 11.2705 15.8034 11.7236 17.076 11.7236Z" fill="#003E51"/>
</svg>
