<svg width="101" height="94" viewBox="0 0 101 94" fill="none" xmlns="http://www.w3.org/2000/svg">
<path d="M58.627 76.6641C56.1634 76.6641 54.1904 78.6195 54.1904 81.0613C54.1904 83.5031 56.1634 85.4586 58.627 85.4586C61.0907 85.4586 63.0586 83.5081 63.0586 81.0613C63.0586 78.6145 61.0857 76.6641 58.627 76.6641ZM58.627 83.0118C57.5204 83.0118 56.6541 82.1582 56.6541 81.0564C56.6541 79.9546 57.5154 79.1059 58.627 79.1059C59.7387 79.1059 60.5999 79.9595 60.5999 81.0564C60.5999 82.1532 59.7387 83.0118 58.627 83.0118Z" fill="#00A3AD"/>
<path d="M18.2271 76.6641C15.7635 76.6641 13.7905 78.6195 13.7905 81.0613C13.7905 83.5031 15.7635 85.4586 18.2271 85.4586C20.6908 85.4586 22.6637 83.5081 22.6637 81.0613C22.6637 78.6145 20.6908 76.6641 18.2271 76.6641ZM18.2271 83.0118C17.1205 83.0118 16.2542 82.1582 16.2542 81.0564C16.2542 79.9546 17.1155 79.1059 18.2271 79.1059C19.3388 79.1059 20.2 79.9595 20.2 81.0564C20.2 82.1532 19.3388 83.0118 18.2271 83.0118Z" fill="#00A3AD"/>
<path d="M101 72.0237L73.6544 71.2941V4.39725H62.5679V43.4614L53.3342 0H10.8411V51.5164H0V81.6718H5.17268C5.54323 88.63 11.2066 94.005 18.2271 94.005C25.2475 94.005 30.5454 88.9973 31.1613 82.4063H45.6979C46.3138 88.9973 51.857 94.005 58.6321 94.005C65.8979 94.005 71.6865 88.2677 71.6865 81.0614C71.6865 79.3541 71.3159 77.6418 70.7 76.1777H101V72.0237ZM29.3135 51.5164V30.6418C29.3135 28.8105 30.5454 26.9791 32.0226 26.1254L47.6658 34.1805L48.7724 34.4237H54.8064C54.6862 34.91 54.561 35.5205 54.561 36.0118C54.561 36.5032 54.6862 36.8655 54.8064 37.3568L51.852 37.9673C49.6337 38.4536 47.9112 38.945 45.6929 37.9673L36.5793 34.0614L35.5929 36.26L39.5337 37.9673L39.4085 42.3645H33.2494L33.4947 44.0718L39.6539 45.0495L48.3969 46.6377C50.3698 47 50.2446 47.9777 50.3698 48.7122L51.1109 59.3332L49.138 60.3109L43.3494 51.7645V51.5213H29.3085L29.3135 51.5164ZM31.652 19.8968V17.8223H39.5337V19.8968C39.5337 23.3164 38.6724 24.17 35.5929 24.17C32.5133 24.17 31.652 23.3164 31.652 19.8968ZM62.5679 56.4V68.7282C61.3361 68.3609 59.9791 68.1177 58.6271 68.1177C57.2751 68.1177 55.918 68.3609 54.6862 68.7282L50.5 62.3805L62.5729 56.4H62.5679ZM57.7658 56.0327L53.4544 58.1073L52.8385 48.7073C52.7183 46.2655 51.4815 44.6773 48.8976 44.1909L41.752 42.8509L41.9974 38.945L44.7064 40.1659C47.786 41.5059 50.2496 41.0195 52.3427 40.4091L56.1634 39.3122C56.6541 39.6746 57.1499 39.9227 57.7658 40.0418V56.0327ZM22.909 2.44182H51.3613L57.3952 31.0091C57.0247 31.2523 56.534 31.6195 56.1634 31.9868H48.7724L37.8112 26.3736C40.6454 25.7631 41.9974 23.8077 41.9974 19.9018V17.8272H46.7995V16.12L41.9974 15.5095C41.8722 12.5813 39.4085 10.8691 35.4677 10.8691C31.8974 10.8691 29.1884 12.9436 29.1884 15.6286V19.9018C29.1884 21.8572 29.4337 23.3213 30.1748 24.299C28.3271 25.7631 26.8499 27.9618 26.8499 30.4036V35.6545H22.909V2.44182ZM22.909 38.0864H26.8499V51.5164H22.909V38.0864ZM2.46366 79.23V53.9582H13.3048V2.44182H20.4504V68.2418C19.7093 68.2418 18.9732 68.1227 18.2321 68.1227C11.5822 68.1227 6.15915 72.8872 5.29787 79.23H2.46366ZM18.2271 91.5582C12.3133 91.5582 7.63634 86.9177 7.63634 81.0614C7.63634 75.205 12.3183 70.5645 18.2271 70.5645C24.1358 70.5645 28.8178 75.205 28.8178 81.0614C28.8178 86.9177 24.1358 91.5582 18.2271 91.5582ZM31.2865 79.9596C30.7957 74.8327 27.4708 70.6836 22.914 68.9763V53.9582H42.0074L52.4779 69.5818C48.6573 71.6564 45.9482 75.4382 45.5777 79.9596H31.2865ZM58.6271 91.5582C52.7133 91.5582 48.0363 86.9177 48.0363 81.0614C48.0363 75.205 52.7183 70.5645 58.6271 70.5645C64.5358 70.5645 69.2178 75.205 69.2178 81.0614C69.2178 86.9177 64.5358 91.5582 58.6271 91.5582ZM71.1907 73.7359H69.4682C68.2363 72.1477 66.7591 70.6836 65.0316 69.7059V6.83411H71.1907V73.7359Z" fill="#00A3AD"/>
</svg>
