<svg width="88" height="88" viewBox="0 0 88 88" fill="none" xmlns="http://www.w3.org/2000/svg">
<path d="M74.9908 13.0092C66.6006 4.61891 55.5723 0 43.9373 0C32.3023 0 21.3042 4.61891 12.949 13.0092C4.59885 21.3894 0 32.4176 0 44.0627C0 55.7078 4.59885 66.7059 12.949 75.056C21.2991 83.4062 32.3023 88.005 43.9423 88.005C55.5824 88.005 66.6156 83.4062 74.9958 75.056C83.3861 66.7009 88.005 55.6927 88.005 44.0627C88.005 32.4327 83.3861 21.3994 74.9958 13.0092H74.9908ZM28.0595 21.1286C28.1899 21.2841 28.3203 21.4446 28.4607 21.6101C29.9251 23.4055 31.2993 24.1778 32.538 23.912C35.1157 23.3603 36.3946 18.586 36.9412 16.5498C37.0315 16.2138 37.1118 15.9129 37.1519 15.8277C37.869 15.8477 39.3184 16.4295 40.853 17.0463C43.1951 17.9892 45.8531 19.0574 47.0066 18.596C49.6846 17.3924 52.4028 18.2299 54.0778 19.4285C54.0026 19.5138 53.8371 19.6893 53.6365 19.9049C52.1922 21.4295 47.7889 26.0785 47.7889 28.3855C47.7889 30.8579 49.489 32.0014 50.8531 32.9241C51.3296 33.2451 51.7809 33.551 52.1069 33.877C52.5232 34.2933 52.3476 35.5922 52.1621 36.9663C52.0818 37.5631 51.9966 38.175 51.9615 38.7467C51.821 40.7126 53.3908 42.0566 55.0157 42.3726C56.2795 42.6183 57.9646 42.2522 58.5563 40.4117C58.6867 39.6243 59.9706 36.4999 61.0589 35.6524C62.423 34.5139 63.0599 30.547 63.5714 27.3574C63.8974 25.3313 64.2033 23.4205 64.5795 23.2801C65.4471 22.904 67.5584 23.2801 72.2476 24.1678C72.5384 24.2229 72.8293 24.4737 73.1102 24.91C74.4291 26.9562 75.2366 32.6684 74.5946 35.4518C73.9728 38.1649 71.2044 40.9533 70.8734 40.9533C68.5013 40.9533 66.4551 42.0065 64.9506 44.0025C62.5734 47.152 61.7359 52.5583 62.9646 56.8562C63.2605 57.7138 63.5413 58.4811 63.7921 59.1581C64.9456 62.2725 65.432 63.5865 63.6968 64.6898L60.5724 58.441C59.5644 56.5403 56.9966 55.7729 53.135 56.2193C49.82 56.6055 46.2643 57.7991 44.0426 58.787C42.5682 59.4239 41.7257 60.8031 41.6153 62.774C41.3997 66.5654 43.9524 71.3448 47.1971 73.2105C50.7679 75.0911 54.1581 74.8755 57.2675 72.5735C58.0598 71.9366 58.9375 71.8363 59.6647 72.2927C60.3718 72.739 60.7429 73.6016 60.5574 74.394L58.9224 82.5686C57.2474 83.1755 55.8682 83.6118 54.5844 83.9327L50.1911 79.5395C47.4278 76.711 45.0507 76.034 42.7537 75.377C40.3716 74.6999 38.1248 74.058 35.7928 70.9486C35.211 70.1362 35.0054 69.0931 34.7898 67.9897C34.534 66.6908 34.2732 65.3518 33.3906 64.1231C27.7335 56.1541 23.9421 55.5021 19.589 55.4971C18.1346 53.6215 18.3402 48.1851 19.4987 44.7247C19.6893 44.183 19.9802 43.6163 20.2861 43.0145C21.1788 41.2643 22.1918 39.2833 21.1387 37.0817C20.8127 36.4748 20.8979 35.4568 20.9982 34.2782C21.1637 32.2672 21.3744 29.7646 19.8698 27.4727C18.4857 25.4767 16.0233 23.9973 13.7464 23.7967C12.272 23.6663 11.0282 24.0574 10.1506 24.9351L5.21069 29.8699C6.93087 25.3162 9.38326 21.1086 12.5127 17.3523H19.5539C24.905 17.3523 25.7676 18.3854 28.0695 21.1437L28.0595 21.1286ZM13.7263 26.2892C15.1506 26.4396 16.7153 27.5279 17.7083 29.0575C18.601 30.3364 18.4455 31.9011 18.2851 33.5611C18.1296 35.1408 17.9691 36.7808 18.7164 38.2753C19.1627 39.0927 18.7966 39.8049 18.1948 40.9884C17.8136 41.7357 17.3372 42.6685 16.941 43.9072C16.3191 46.0637 15.9681 48.8872 16.0233 51.2794C16.0734 53.3757 16.4495 56.1742 17.9591 57.6235L21.244 66.9717L23.6462 71.6508L23.6813 71.721L26.0886 70.3819L23.6613 65.9035L20.918 58.1752C24.0424 58.4109 26.6402 59.1481 31.2391 65.7179C31.5751 66.1993 31.7105 66.9717 31.866 67.8593C32.1067 69.2586 32.4076 70.9938 33.6413 72.5434C36.7808 76.726 40.0606 77.7491 42.9594 78.6518C44.9453 79.2687 46.816 79.8505 48.3155 81.4001L51.5051 84.5847C49.0026 85.0762 46.5301 85.3119 43.9473 85.3119C32.9643 85.3119 22.6131 81.0089 14.7996 73.2004C6.98604 65.3869 2.68809 55.0407 2.68809 44.0527C2.68809 41.2041 3.02912 38.195 3.69613 35.1157L12.0212 26.7907C12.4274 26.3845 13.0192 26.2089 13.7364 26.2841L13.7263 26.2892ZM61.9917 81.2146L63.2254 74.9156C63.5564 73.1904 62.5734 71.1743 60.8884 70.1111C60.1311 69.6347 59.3287 69.399 58.5162 69.399C57.5433 69.399 56.5603 69.74 55.6526 70.412C52.6285 72.6488 50.4419 71.9166 48.5311 70.7882C45.7578 69.2285 43.9875 65.6226 44.0677 63.2304C44.0928 62.5132 44.2934 61.5754 45.1108 61.1893C49.3937 59.1832 57.107 57.6586 58.1601 59.6396L62.4581 68.2355L62.4882 68.2957L62.5534 68.2706C65.1462 67.3378 66.7159 66.1993 67.3629 64.7851C68.2154 62.9145 67.3879 60.768 66.5103 58.4911C66.2044 57.6987 65.8884 56.8813 65.6326 56.0438C64.5444 52.6084 65.091 48.2904 66.9316 45.7779C67.9647 44.3686 69.3238 43.6264 70.8684 43.6264C72.7741 43.6264 76.4001 39.6745 77.2627 35.9834C78.1905 31.7506 76.696 22.3674 72.7792 21.4847C68.0399 20.587 65.1612 20.2209 63.5113 20.8578C61.6958 21.5399 61.1742 25.2811 60.7128 28.5811C60.4019 30.8278 60.106 32.9542 59.444 33.5109C57.8141 34.885 56.3196 38.6715 56.0087 39.6093C55.9084 39.86 55.6275 39.9052 55.4018 39.86C55.0207 39.7848 54.6395 39.4689 54.6395 39.0075C54.6596 38.7166 54.7097 38.3655 54.7599 37.9593C55.0006 36.1338 55.3567 33.3755 53.9826 32.0014C52.7689 30.7877 51.9364 30.2661 51.3847 29.9251C50.6776 29.4838 50.462 29.3484 50.462 28.3905C50.462 27.4326 51.7709 25.9331 53.1551 24.3333C54.9204 22.2971 56.7459 20.1858 56.5503 18.601C56.4901 18.0945 56.2143 17.6682 55.7378 17.3322C53.4359 15.7575 49.3887 14.7294 45.9433 16.1837C45.9433 16.1837 45.9333 16.1837 45.9283 16.1837C45.7478 16.1837 44.7748 15.7775 43.7467 15.3462C41.5351 14.4184 38.506 13.1446 37.1168 13.1446C33.882 13.1446 33.2652 16.4044 32.8138 18.7816C32.5982 19.935 32.4076 20.928 31.9763 21.0384C31.6654 21.1186 31.224 20.7726 30.6022 20.0002C30.3915 19.7445 30.1859 19.4987 29.9903 19.258C27.7135 16.4897 26.2089 14.6642 19.5489 14.6642H14.9249C19.9049 9.73431 26.2089 6.0783 33.1849 4.07728L40.4869 9.11244C41.8109 10.0904 43.3505 10.7574 45.1911 11.1486C46.8812 11.5046 48.6214 11.5949 50.2614 11.6551L57.3377 11.9059C60.3216 12.0112 62.418 10.963 64.5644 8.26489C70.7681 11.8507 75.9688 16.9862 79.6047 23.1196C83.351 29.4437 85.332 36.6855 85.332 44.0627C85.332 51.9364 83.0752 59.6145 78.8023 66.2696C74.6598 72.719 68.8523 77.8845 62.0017 81.2196L61.9917 81.2146ZM57.3377 9.22277L50.2614 8.97202C47.2172 8.85165 44.499 8.61595 42.0867 6.96096L36.6805 3.27486C39.2632 2.87365 41.7056 2.67305 43.9373 2.67305C50.3566 2.67305 56.4801 4.10235 62.1471 6.92084C60.7028 8.73631 59.429 9.34313 57.3377 9.22277Z" fill="#00A3AD"/>
</svg>
