<svg width="39" height="31" viewBox="0 0 39 31" fill="none" xmlns="http://www.w3.org/2000/svg">
<path d="M24.8208 14.814L32.2313 10.5567L24.8208 6.29945L17.4102 10.5567L24.8208 14.814ZM24.8208 20.6215L30.0763 17.5892V13.8008L24.8208 16.8709L19.5653 13.8008V17.5892L24.8208 20.6215ZM34.5755 30.1418H24.8207C24.8207 29.6503 24.804 29.1588 24.7706 28.6673C24.7373 28.1758 24.6872 27.6843 24.6203 27.1928H34.5755C34.7519 27.1928 34.8969 27.136 35.0103 27.0226C35.1238 26.9092 35.1805 26.7642 35.1805 26.5878V4.20484C35.1805 4.02838 35.1238 3.88343 35.0103 3.76999C34.8969 3.65655 34.7519 3.59983 34.5755 3.59983H4.32825C4.15179 3.59983 4.00685 3.65655 3.8934 3.76999C3.77996 3.88343 3.72324 4.02838 3.72324 4.20484V6.29566C3.23172 6.22885 2.74022 6.17875 2.24873 6.14536C1.75721 6.11197 1.26569 6.09527 0.77417 6.09527V4.20484C0.77417 3.22747 1.12218 2.39079 1.81821 1.69479C2.5142 0.99877 3.35088 0.650757 4.32825 0.650757H34.5755C35.5528 0.650757 36.3895 0.99877 37.0855 1.69479C37.7815 2.39079 38.1296 3.22747 38.1296 4.20484V26.5878C38.1296 27.5651 37.7815 28.4018 37.0855 29.0978C36.3895 29.7938 35.5528 30.1418 34.5755 30.1418ZM0.77417 30.1418V25.3023C2.11009 25.3023 3.25066 25.7749 4.19588 26.7201C5.14108 27.6653 5.61367 28.8059 5.61367 30.1418H0.77417ZM9.92395 30.1418C9.92395 27.6111 9.03167 25.4598 7.24709 23.6878C5.46251 21.9158 3.30487 21.0172 0.77417 20.9921V18.043C4.1417 18.043 7.00005 19.2169 9.34922 21.5646C11.6984 23.9123 12.873 26.7714 12.873 30.1418H9.92395ZM17.5614 30.1418C17.5614 27.8127 17.1197 25.6311 16.2362 23.597C15.3527 21.5629 14.1542 19.7891 12.6406 18.2754C11.1269 16.7618 9.35307 15.5633 7.319 14.6798C5.28489 13.7963 3.10328 13.3546 0.77417 13.3546V10.4056C3.504 10.4056 6.06407 10.921 8.45436 11.9518C10.8447 12.9826 12.9362 14.3944 14.7289 16.1871C16.5216 17.9798 17.9334 20.0714 18.9642 22.4616C19.995 24.8519 20.5105 27.412 20.5105 30.1418H17.5614Z" fill="#00A3AD"/>
</svg>
