<svg width="44" height="31" viewBox="0 0 44 31" fill="none" xmlns="http://www.w3.org/2000/svg">
<rect x="1.1" y="1.1" width="41.8" height="28.0951" rx="3.9" stroke="#00A3AD" stroke-width="2.2"/>
<mask id="path-2-inside-1_365_3455" fill="white">
<path fill-rule="evenodd" clip-rule="evenodd" d="M1.0473 1.9378L21.9996 18.7539L42.9529 1.93707C42.0382 0.758347 40.6079 -0.000244141 39.0004 -0.000244141H5.00037C3.39254 -0.000244141 1.96197 0.758659 1.0473 1.9378Z"/>
</mask>
<path d="M21.9996 18.7539L20.4348 20.7036L21.9996 21.9595L23.5645 20.7036L21.9996 18.7539ZM1.0473 1.9378L-0.928062 0.405502L-2.43518 2.34841L-0.517512 3.88751L1.0473 1.9378ZM42.9529 1.93707L44.5177 3.88678L46.4357 2.3474L44.928 0.404414L42.9529 1.93707ZM23.5645 16.8042L2.61212 -0.0119075L-0.517512 3.88751L20.4348 20.7036L23.5645 16.8042ZM41.3881 -0.012633L20.4348 16.8042L23.5645 20.7036L44.5177 3.88678L41.3881 -0.012633ZM39.0004 2.49976C39.8027 2.49976 40.5163 2.87498 40.9778 3.46973L44.928 0.404414C43.5601 -1.35829 41.413 -2.50024 39.0004 -2.50024V2.49976ZM5.00037 2.49976H39.0004V-2.50024H5.00037V2.49976ZM3.02267 3.4701C3.48418 2.87514 4.19784 2.49976 5.00037 2.49976V-2.50024C2.58725 -2.50024 0.439752 -1.35782 -0.928062 0.405502L3.02267 3.4701Z" fill="#00A3AD" mask="url(#path-2-inside-1_365_3455)"/>
</svg>
