<svg width="40" height="24" viewBox="0 0 40 24" fill="none" xmlns="http://www.w3.org/2000/svg">
<path d="M19.6209 19.3695H20.6381V17.8785C21.5292 17.7564 22.2851 17.4052 22.9057 16.825C23.5263 16.2448 23.8366 15.4966 23.8366 14.5805C23.8366 13.7865 23.5183 13.1223 22.8818 12.5879C22.2453 12.0535 21.5133 11.6113 20.6858 11.2612V7.39804C21.053 7.46901 21.3707 7.62201 21.6387 7.85705C21.9068 8.09208 22.1008 8.35648 22.2208 8.65023L23.5722 8.08104C23.3249 7.51062 22.9421 7.04234 22.4238 6.67618C21.9054 6.31002 21.3261 6.06835 20.6858 5.95117V4.46024H19.6209V5.94014C18.7297 6.03015 17.9739 6.33768 17.3533 6.86274C16.7327 7.38778 16.4224 8.08534 16.4224 8.95543C16.4224 9.76552 16.7486 10.4523 17.401 11.0158C18.0534 11.5793 18.7934 12.0332 19.6209 12.3775V16.406C19.0137 16.2958 18.5167 16.0559 18.1299 15.6862C17.7432 15.3166 17.4739 14.8771 17.322 14.3679L15.9817 14.9371C16.2363 15.7425 16.6819 16.4041 17.3184 16.922C17.9549 17.4397 18.7224 17.7623 19.6209 17.8896V19.3695ZM20.6858 16.395V12.7668C21.1321 12.971 21.5276 13.2161 21.8725 13.502C22.2173 13.788 22.3897 14.1708 22.3897 14.6507C22.3897 15.199 22.2318 15.6011 21.916 15.857C21.6002 16.1128 21.1901 16.2921 20.6858 16.395ZM19.6209 10.8242C19.1973 10.6161 18.7995 10.3701 18.4274 10.0861C18.0553 9.80209 17.8692 9.42508 17.8692 8.95504C17.8692 8.44602 18.0492 8.07334 18.4091 7.837C18.7689 7.60066 19.1729 7.45066 19.6209 7.38701V10.8242ZM12.2764 23.3722C9.08473 23.3722 6.37725 22.2612 4.15399 20.0393C1.93072 17.8175 0.819092 15.1116 0.819092 11.9219C0.819092 8.73215 1.93072 6.02399 4.15399 3.79738C6.37725 1.57081 9.08473 0.45752 12.2764 0.45752H27.5529C30.7446 0.45752 33.4521 1.56847 35.6753 3.79036C37.8986 6.01226 39.0102 8.71808 39.0102 11.9078C39.0102 15.0976 37.8986 17.8057 35.6753 20.0323C33.4521 22.2589 30.7446 23.3722 27.5529 23.3722H12.2764ZM12.2764 21.4626H27.5529C30.1944 21.4626 32.4461 20.5317 34.3079 18.6699C36.1698 16.8081 37.1007 14.5564 37.1007 11.9149C37.1007 9.2733 36.1698 7.02162 34.3079 5.1598C32.4461 3.29798 30.1944 2.36708 27.5529 2.36708H12.2764C9.63488 2.36708 7.38319 3.29798 5.52137 5.1598C3.65956 7.02162 2.72865 9.2733 2.72865 11.9149C2.72865 14.5564 3.65956 16.8081 5.52137 18.6699C7.38319 20.5317 9.63488 21.4626 12.2764 21.4626Z" fill="#00A3AD"/>
</svg>
