<svg width="54" height="49" viewBox="0 0 54 49" fill="none" xmlns="http://www.w3.org/2000/svg">
<path d="M4.84007 48.2351C3.45993 48.2351 2.30757 47.7728 1.38298 46.8482C0.458388 45.9236 -0.00390625 44.7713 -0.00390625 43.3911V5.10038C-0.00390625 3.72025 0.458388 2.56788 1.38298 1.64329C2.30757 0.718703 3.45993 0.256409 4.84007 0.256409H49.1282C50.5083 0.256409 51.6607 0.718703 52.5852 1.64329C53.5098 2.56788 53.9721 3.72025 53.9721 5.10038V43.3911C53.9721 44.7713 53.5098 45.9236 52.5852 46.8482C51.6607 47.7728 50.5083 48.2351 49.1282 48.2351H4.84007ZM4.84007 45.2364H49.1282C49.5895 45.2364 50.0123 45.0442 50.3968 44.6598C50.7812 44.2753 50.9735 43.8524 50.9735 43.3911V5.10038C50.9735 4.63909 50.7812 4.2162 50.3968 3.83172C50.0123 3.44729 49.5895 3.25508 49.1282 3.25508H4.84007C4.37877 3.25508 3.95589 3.44729 3.57141 3.83172C3.18698 4.2162 2.99476 4.63909 2.99476 5.10038V43.3911C2.99476 43.8524 3.18698 44.2753 3.57141 44.6598C3.95589 45.0442 4.37877 45.2364 4.84007 45.2364ZM11.2988 36.9325H42.6695V33.9338H11.2988V36.9325ZM11.2988 25.7451H21.4481V11.5591H11.2988V25.7451ZM28.5987 25.7451H42.6695V22.7464H28.5987V25.7451ZM28.5987 14.5577H42.6695V11.5591H28.5987V14.5577Z" fill="#00A3AD"/>
</svg>
