<svg width="47" height="47" viewBox="0 0 47 47" fill="none" xmlns="http://www.w3.org/2000/svg">
<circle cx="23.2088" cy="23.2088" r="23.2088" fill="white"/>
<path d="M12.9929 16.8654C12.4883 16.397 12.2373 15.8172 12.2373 15.1274C12.2373 14.4375 12.4896 13.8322 12.9929 13.3625C13.4976 12.8941 14.1472 12.6592 14.943 12.6592C15.7389 12.6592 16.363 12.8941 16.8663 13.3625C17.371 13.8309 17.6219 14.42 17.6219 15.1274C17.6219 15.8347 17.3696 16.397 16.8663 16.8654C16.3617 17.3338 15.7215 17.5687 14.943 17.5687C14.1646 17.5687 13.4976 17.3338 12.9929 16.8654ZM17.1978 19.5524V33.9132H12.6601V19.5524H17.1978Z" fill="#003E51"/>
<path d="M32.3037 20.9714C33.2928 22.0451 33.7868 23.5188 33.7868 25.3951V33.66H29.4772V25.9776C29.4772 25.0314 29.2316 24.2959 28.7417 23.7724C28.2518 23.249 27.5915 22.986 26.7647 22.986C25.938 22.986 25.2776 23.2476 24.7877 23.7724C24.2978 24.2959 24.0522 25.0314 24.0522 25.9776V33.66H19.7172V19.5125H24.0522V21.3888C24.4911 20.7634 25.083 20.2695 25.8266 19.9058C26.5701 19.542 27.4063 19.3608 28.3364 19.3608C29.9926 19.3608 31.3159 19.8977 32.3037 20.9714Z" fill="#003E51"/>
</svg>
