<svg xmlns="http://www.w3.org/2000/svg" width="38" height="27" viewBox="0 0 38 27">
  <defs>
    <style>
      .cls-1 {
        fill: #00a3ad;
      }
    </style>
  </defs>
  <path id="Vector_5_" data-name="Vector(5)" class="cls-1" d="M34.469,27H8.586V25.732H34.469ZM6.941,1.272V8.052a15.6,15.6,0,0,0,9.742,14.51H27.1a15.546,15.546,0,0,0,9.684-14.51V1.272ZM5.723,8.052V3.361H4.02a2.89,2.89,0,0,0-2.8,2.914V8.938a2.952,2.952,0,0,0,2.8,2.979H6.152A20.017,20.017,0,0,1,5.723,8.052ZM38,8.052A16.9,16.9,0,0,1,27.344,23.83h-10.9A16.9,16.9,0,0,1,6.516,13.185H4.02A4.283,4.283,0,0,1,0,8.938V6.276A4.223,4.223,0,0,1,4.02,2.093h1.7V0H38Z"/>
</svg>
