<svg xmlns="http://www.w3.org/2000/svg" width="37" height="41" viewBox="0 0 37 41">
  <defs>
    <style>
      .cls-1 {
        fill: #00a3ad;
      }
    </style>
  </defs>
  <path id="Vector_6_" data-name="Vector(6)" class="cls-1" d="M6.381,38.8V34.1C1.95,29.878,0,25.9,0,20.421a17.6,17.6,0,0,1,2.954-9.586V.344H4.195V11.739a3.2,3.2,0,0,0,.145,1.315,3.263,3.263,0,0,0,.667,1.153l1.728,1.751a3.5,3.5,0,0,1,.889,1.357,3.421,3.421,0,0,1,.174,1.6V22.7H6.558V18.914c0-1.205-.133-1.579-.694-2.109L4.077,15a4.113,4.113,0,0,1-1-2.052,16.819,16.819,0,0,0-1.787,7.477,16.559,16.559,0,0,0,1.33,6.526,16.956,16.956,0,0,0,3.81,5.528V24.3h4.594v.416A8.583,8.583,0,0,0,13.8,27.5a8.935,8.935,0,0,0,7.732.8,8.736,8.736,0,0,0,3.325-2.151V24.3h4.594v9.156a16.825,16.825,0,0,0,4.659-5.789,16.318,16.318,0,0,0,0-14.339,16.826,16.826,0,0,0-4.659-5.789V21.583H28.211V1.205H25.848L23.485,19.043a2.017,2.017,0,0,0,.474,1.237,2.12,2.12,0,0,0,1.151.7l-.251,1.205A3.437,3.437,0,0,1,22.977,21a3.268,3.268,0,0,1-.719-2.067L23,13.26a9.06,9.06,0,0,0-4.431-1.206,9.227,9.227,0,0,0-4.21.962,4.655,4.655,0,0,1-.99,1.937l-1.8,1.808c-.561.6-.679.9-.679,2.109V22.66H9.645V18.871a3.407,3.407,0,0,1,.166-1.6,3.49,3.49,0,0,1,.883-1.358l1.743-1.751a3.318,3.318,0,0,0,.655-1.156,3.254,3.254,0,0,0,.143-1.312V.3h1.241V2.956a19.208,19.208,0,0,1,9.867.474L24.785,0H29.5V5.97a18.192,18.192,0,0,1,5.522,6.382,17.6,17.6,0,0,1,0,16.224A18.191,18.191,0,0,1,29.5,34.958v3.8a2.215,2.215,0,0,1-.734,1.466,2.354,2.354,0,0,1-3.125,0,2.216,2.216,0,0,1-.734-1.466V37.326a19.206,19.206,0,0,1-13.84-.416v1.866a2.367,2.367,0,0,1-.716,1.528,2.5,2.5,0,0,1-1.573.7,2.46,2.46,0,0,1-1.639-.642A2.327,2.327,0,0,1,6.381,38.8Zm0-38.46H7.621V10.39H6.381ZM9.793,38.8V25.544H7.681V38.8A1.034,1.034,0,0,0,8,39.522a1.094,1.094,0,0,0,.743.3,1.209,1.209,0,0,0,.688-.34,1.149,1.149,0,0,0,.331-.678Zm0-38.46h1.241V10.39H9.793ZM24.844,27.883a10.288,10.288,0,0,1-6.337,2.181,9.886,9.886,0,0,1-4.135-.84A9.624,9.624,0,0,1,11,26.75V35.6a17.172,17.172,0,0,0,7.5,1.636,17.787,17.787,0,0,0,6.337-1.148ZM24.105,4.621a17.361,17.361,0,0,0-5.583-.9,19.082,19.082,0,0,0-4.091.488V11.8a10.6,10.6,0,0,1,4.091-.847,10.161,10.161,0,0,1,4.653,1.091ZM28.211,38.8V25.544H26.1V38.8a1.024,1.024,0,0,0,.35.651,1.087,1.087,0,0,0,1.413,0A1.025,1.025,0,0,0,28.211,38.8Z"/>
</svg>
