<svg xmlns="http://www.w3.org/2000/svg" width="29" height="39" viewBox="0 0 29 39">
  <defs>
    <style>
      .cls-1 {
        fill: #00a3ad;
      }
    </style>
  </defs>
  <path id="Vector_2_" data-name="Vector(2)" class="cls-1" d="M27.9,5.791l-4.7,5.016-5.656,5.686-.432,7H16.044l.432-7.445,5.974-6.014,4.7-5.016c.75-.775,1.068-1.274.483-1.76L26.3,2.1,21.6,6.907,15.09,11.149,12.154,21.8l.267,1.707H11.354l-.1-.657c-.165-1.1-.585-1.878-1.652-1.983l-4-.5L4.16,15.4H5.227l1.284,3.861,2.237.276-2.186-8.1-3.788.5a1.933,1.933,0,0,0-1.6,2.377l1.97,9.205H2.075l-2-9.008a2.991,2.991,0,0,1,2.5-3.637l4.7-.656L9.854,19.7l1.551.656,2.72-9.875,6.838-4.465L26.3.552l2.085,1.93C29.618,3.585,28.754,4.911,27.9,5.791ZM.613,25.16h25.1v1.1H24.433V39H23.365V26.263H2.965V39H1.9V26.263H.613ZM19.882,37.293A5.816,5.816,0,0,1,19.666,39H18.548a5.858,5.858,0,0,0-5.389-7.6,5.853,5.853,0,0,0-5.707,5.9A6.125,6.125,0,0,0,7.718,39H6.651a4.371,4.371,0,0,1-.267-1.707,6.972,6.972,0,0,1,6.775-7A6.938,6.938,0,0,1,19.882,37.293ZM7.6,8.548a29.553,29.553,0,0,1-.9-6.29C7.337.775,8.837,0,10.807,0a4.451,4.451,0,0,1,4.054,2.206c-.051,2.206-.585,5.633-1.017,6.342A6.182,6.182,0,0,1,11.226,9.7v7.065H10.159V9.7A6.7,6.7,0,0,1,7.591,8.548Zm.165-6.014a26.592,26.592,0,0,0,.75,5.239,5.049,5.049,0,0,0,2.237.932,5.589,5.589,0,0,0,2.237-.932,27.379,27.379,0,0,0,.8-5.239A3.324,3.324,0,0,0,10.807,1.1,3.181,3.181,0,0,0,7.769,2.534ZM23.3,20.629v1.76h2.135v1.1h-5.5v-1.1h2.3V21.233l-2.618-2.311,1.233-1.274Z"/>
</svg>
