<svg xmlns="http://www.w3.org/2000/svg" width="37" height="37" viewBox="0 0 37 37">
  <defs>
    <style>
      .cls-1 {
        fill: #00a3ad;
      }
    </style>
  </defs>
  <path id="Vector_3_" data-name="Vector(3)" class="cls-1" d="M14.207,35.953V37h-3.6V34.484c0-1.408-.629-1.993-1.949-2.566H3.6c-1.106.311-1.421,1.408-1.748,2.616l-.691,2.454H0l.792-2.716c.691-2.4,1.056-2.828,2.69-3.4a13.751,13.751,0,0,1-.314-2.928,3.117,3.117,0,0,1,2.954-1.57,3.039,3.039,0,0,1,2.9,1.57,25.716,25.716,0,0,1-.314,2.928c1.748.623,2.954,1.358,2.954,3.613v1.47ZM7.971,28.267c-.314-.623-.842-.835-1.848-.835s-1.534.212-1.9.835a8.943,8.943,0,0,0,.365,2.616H7.656A12,12,0,0,0,7.971,28.267Zm12.786.573H17.01l-1.534-8.8,1.056-.212,1.32,7.948H19.6L18.443,17l-.05-5.868h9.09V9.879H13.151a1.317,1.317,0,0,0-1.484,1.258l-.264,7.8,1.27.05.214-2.878V12.919h1.056v3.189L13.05,27.781h2.112v1.047H11.893l.691-8.8-2.213-.162.264-8.745a2.388,2.388,0,0,1,2.54-2.3H28.6v.573l7.971-3.974L37,6.366l-8.4,4.186v1.62h-9.14l.05,4.759,1.27,11.885ZM13.565,6.852c-.1-.473-.365-2.454-.478-2.977a2.323,2.323,0,0,1,2.54-1.931,2.311,2.311,0,0,1,2.539,1.931L17.8,6.8a3.832,3.832,0,0,1-2.162,1,3.952,3.952,0,0,1-2.062-.947Zm3.168-.424c.1-.573.264-1.881.365-2.516-.214-.685-.578-.947-1.483-.947-.842,0-1.22.262-1.421.947.163,1,.264,1.881.427,2.454a5.176,5.176,0,0,0,1.006.361l1.106-.311ZM21.008,8V0H36.962V1.046h-14.9V8.01H21.008Zm0,9.58V13.131h1.056v3.4h14.9v1.046ZM36.7,28.3l-2.162,8.683H33.48l2.162-8.945c.163-.573,0-.947-.528-1.047L32.047,34.06l-4.7.573a4.152,4.152,0,0,0-2.8,1.619l-.578.735h-2.59V35.941h2.062l.264-.312a5.459,5.459,0,0,1,3.533-2.043l4.061-.473,3.168-7.375.792.212A1.952,1.952,0,0,1,36.673,28.3ZM24.189,4.086V3.04h2.854V4.086Zm2.854,1.57V6.7H24.189V5.656Zm2.54,21.453,1.32,4.024a5.964,5.964,0,0,1-3.168,1.258c-1.32,0-3.118-.623-3.118-2.093V27.731a2.374,2.374,0,0,1,2.275-2.143C28.061,25.589,29.218,25.95,29.582,27.108ZM25.672,30.3c0,.523.893,1.047,2.062,1.047a4.3,4.3,0,0,0,1.9-.623l-1.056-3.3c-.214-.573-.742-.785-1.534-.785a1.386,1.386,0,0,0-1.37,1.1Zm3.7-27.258h2.854V4.086H29.369Zm5.117,0h2.477V4.086H34.486Z"/>
</svg>
