<svg xmlns="http://www.w3.org/2000/svg" width="37" height="37" viewBox="0 0 37 37">
  <defs>
    <style>
      .cls-1 {
        fill: #00a3ad;
      }
    </style>
  </defs>
  <path id="Vector_1_" data-name="Vector(1)" class="cls-1" d="M4.493,33.666A2.226,2.226,0,0,1,2.278,35.88a2.246,2.246,0,1,1,0-4.491A2.209,2.209,0,0,1,4.493,33.666ZM32.721,0V15.109H23.786l-.214-1.057h8.092v-13H6.179v13h8.092l-.214,1.057H5.122V0ZM10.257,27.162a2.226,2.226,0,0,1-2.215,2.214,2.246,2.246,0,1,1,0-4.491A2.209,2.209,0,0,1,10.257,27.162ZM22.049,11.939l.793,4.806H28.82v3.963H27.763V17.8H10.093v2.906H9.036V16.745h5.978l.793-4.806ZM14.485,34.723a2.222,2.222,0,1,1-4.443,0,2.2,2.2,0,0,1,2.227-2.214A2.226,2.226,0,0,1,14.485,34.723Zm6.242-6.441a2.221,2.221,0,0,1-4.443,0A2.292,2.292,0,0,1,18.513,26,2.24,2.24,0,0,1,20.728,28.281Zm-1.8-17.336a2.88,2.88,0,0,1-1.372-.579c-.05-.314-.315-2.063-.315-2.327.214-1.006.793-1.271,1.7-1.271.956,0,1.485.264,1.737,1.271,0,.264-.264,2.013-.315,2.378a3.759,3.759,0,0,1-1.422.528Zm8.029,23.778a2.222,2.222,0,1,1-4.442,0,2.2,2.2,0,0,1,2.228-2.214A2.226,2.226,0,0,1,26.957,34.723Zm4.279-7.561a2.24,2.24,0,0,1-2.278,2.214,2.194,2.194,0,0,1-2.215-2.214,2.247,2.247,0,1,1,4.493,0ZM37,33.666a2.237,2.237,0,0,1-2.265,2.214,2.213,2.213,0,0,1-2.228-2.214,2.247,2.247,0,1,1,4.493,0Z"/>
</svg>
