<svg width="132" height="21" viewBox="0 0 132 21" fill="none" xmlns="http://www.w3.org/2000/svg">
<path d="M18.9683 11.8834C19.362 11.8834 19.5857 11.6661 19.5857 11.277V8.80618C19.5857 8.40796 19.371 8.19979 18.9683 8.19979H13.5552C13.4478 8.19979 13.2331 8.236 13.1168 8.2722L8.95628 9.60263C8.70576 9.67503 8.59839 9.78364 8.59839 10.0371V10.7882C8.59839 11.0417 8.70576 11.1865 8.95628 11.2227L13.3673 11.9015V15.3407C13.0452 15.4493 12.1057 15.7389 10.5847 15.7389C7.11313 15.7389 5.1984 13.6935 5.1984 10.2543C5.1984 6.38064 7.47997 4.16326 11.4884 4.16326C12.8305 4.16326 14.2352 4.56148 15.5057 4.80585C16.0515 4.91445 16.302 4.80585 16.481 4.27186L17.1699 2.19024C17.3847 1.58386 17.2773 1.25804 16.7673 1.04083C15.8636 0.642603 13.4389 1.52906e-05 10.6563 1.52906e-05C3.32841 -0.00903524 0 4.00035 0 10.2362C0 16.0376 4.00841 19.7302 10.0836 19.7302C11.6405 19.7302 12.7589 19.4043 13.4836 19.1238L16.8478 20.2008C17.3131 20.3456 17.5726 20.1646 17.5726 19.7392V11.8834H18.9683ZM51.814 15.5036C51.4919 15.5036 51.0177 15.6484 49.8277 15.6484C46.5709 15.6484 44.4772 13.3948 44.4772 10.0552C44.4772 6.32633 46.8303 4.47098 49.7919 4.47098C50.803 4.47098 51.7782 4.72439 52.7893 4.96876C53.4782 5.14977 53.6214 4.82395 53.7645 4.43477L54.4535 2.35315C54.5966 1.88253 54.7398 1.52955 54.0508 1.20374C53.4335 0.914119 51.0535 0.380138 49.1745 0.380138C43.0993 0.380138 39.082 3.85554 39.082 10.2724C39.082 15.6122 42.8756 19.7664 48.9509 19.7664C50.0335 19.7664 50.7224 19.5854 51.0445 19.4044C51.1519 19.3319 51.2593 19.2595 51.3308 19.0423L52.2703 16.2819C52.4493 15.7117 52.2345 15.4945 51.7961 15.4945M63.875 5.39413L65.5392 11.3041H62.175C63.5529 6.47114 63.875 5.39413 63.875 5.39413ZM107.243 0.669754C107.645 0.669754 107.86 0.886967 107.86 1.27614V18.8342C107.86 19.2324 107.645 19.4406 107.243 19.4406H103.485C103.091 19.4406 102.867 19.2233 102.867 18.8342V1.28519C102.867 0.886967 103.082 0.678805 103.485 0.678805H107.243V0.669754ZM34.7425 8.84238C34.7425 8.44416 34.5278 8.236 34.1251 8.236H28.0141V4.833H35.2793C35.682 4.833 35.8609 4.61579 35.8609 4.22661V1.28519C35.8609 0.886967 35.682 0.678805 35.2793 0.678805H23.7104C23.3167 0.678805 23.0931 0.896018 23.0931 1.28519V18.8704C23.0931 19.2686 23.3078 19.4406 23.7104 19.4406H35.2793C35.682 19.4406 35.8609 19.2595 35.8609 18.8704V15.8565C35.8609 15.4583 35.682 15.2864 35.2793 15.2864H28.0141V11.9196H34.1251C34.5278 11.9196 34.7425 11.7023 34.7425 11.3132V8.84238ZM67.7134 18.8342C67.8208 19.2324 68.0713 19.4406 68.4739 19.4406H72.6345C73.0013 19.4406 73.216 19.2233 73.0729 18.8342L67.0692 1.28519C66.9618 0.959371 66.7829 0.678805 66.3087 0.678805H61.6113C61.2087 0.678805 60.994 0.896018 60.8508 1.28519L54.9903 18.8432C54.8472 19.2414 55.0261 19.4496 55.4287 19.4496H59.294C59.6966 19.4496 59.9471 19.2324 60.0545 18.8432C60.4571 17.377 60.815 16.1552 61.1371 15.0058H66.595L67.7134 18.8432V18.8342ZM132 18.8704C132 19.2686 131.785 19.4406 131.383 19.4406H126.864C126.542 19.4406 126.318 19.1147 126.175 18.8704L118.731 6.65215V18.8342C118.731 19.2324 118.516 19.4406 118.114 19.4406H114.535C114.132 19.4406 113.917 19.2233 113.917 18.8342V1.28519C113.917 0.886967 114.132 0.678805 114.535 0.678805H119.34C119.885 0.678805 120.1 0.93222 120.315 1.28519L127.151 13.1776V1.28519C127.151 0.886967 127.365 0.678805 127.768 0.678805H131.383C131.785 0.678805 132 0.896018 132 1.28519V18.8704ZM81.3134 6.65215L84.6418 16.0014C84.7849 16.3996 84.9281 16.6077 85.3307 16.6077H88.1849C88.5875 16.6077 88.6949 16.3905 88.8381 16.0014L91.9517 6.65215L92.1307 18.8342C92.1307 19.2324 92.2381 19.4406 92.6407 19.4406H96.327C96.7296 19.4406 96.8012 19.2233 96.8012 18.8342L96.5507 1.27614C96.5507 0.877917 96.2644 0.669754 95.8617 0.669754H90.726C90.3233 0.669754 90.0728 0.886967 89.9654 1.27614L86.9681 11.0598L83.6397 1.27614C83.4965 0.877917 83.237 0.669754 82.8434 0.669754H77.3139C76.9113 0.669754 76.7681 0.886967 76.7681 1.27614L76.5176 18.8704C76.5176 19.2686 76.6608 19.4406 77.0634 19.4406H80.6423C81.0449 19.4406 81.1523 19.2595 81.1523 18.8704L81.3313 6.65215H81.3134Z" fill="white"/>
</svg>
