<svg width="274" height="75" viewBox="0 0 274 75" fill="none" xmlns="http://www.w3.org/2000/svg">
<path d="M19.8466 74.2245L13.2803 66.7889C10.292 63.4281 8.61554 62.2483 6.43453 62.2483C3.88096 62.2483 2.26655 64.2741 2.26655 66.6336C2.26655 68.9388 3.38422 70.4912 5.44104 72.0435C5.68942 72.2298 5.87569 72.5402 5.87569 72.9438C5.87569 73.5647 5.37895 74.0615 4.75802 74.0615C4.50965 74.0615 4.26128 73.9684 4.075 73.8131C1.55248 72.0124 0.0622559 70.0177 0.0622559 66.4396C0.0622559 62.52 2.67792 59.687 6.22497 59.687H6.28706C9.46155 59.687 11.4175 61.3635 14.7472 65.19L19.9087 71.0112V60.4632C19.9087 59.8422 20.4054 59.3145 21.0263 59.3145C21.6473 59.3145 22.144 59.8422 22.144 60.4632V73.557C22.144 74.2711 21.6783 74.7988 20.9953 74.7988C20.5296 74.7988 20.1881 74.6126 19.8466 74.209V74.2245Z" fill="white"/>
<path d="M11.3242 56.0543H11.2621C5.16146 56.0543 0 52.4141 0 46.818C0 41.2141 5.09937 37.6748 11.2 37.6748H11.2621C17.3627 37.6748 22.5242 41.2839 22.5242 46.8801C22.5242 52.5072 17.4248 56.0543 11.3242 56.0543ZM11.3242 40.2206H11.2621C6.50422 40.2206 2.2431 42.8363 2.2431 46.8801C2.2431 50.9549 6.41108 53.5085 11.2 53.5085H11.2621C16.0199 53.5085 20.2811 50.8928 20.2811 46.818C20.2811 42.7431 16.082 40.2206 11.3242 40.2206Z" fill="white"/>
<path d="M19.8466 34.5239L13.2803 27.0882C10.292 23.7275 8.61554 22.5477 6.43453 22.5477C3.88096 22.5477 2.26655 24.5735 2.26655 26.933C2.26655 29.2382 3.38422 30.7905 5.44104 32.3428C5.68942 32.5291 5.87569 32.8396 5.87569 33.2432C5.87569 33.8641 5.37895 34.3609 4.75802 34.3609C4.50965 34.3609 4.26128 34.2677 4.075 34.1125C1.55248 32.3196 0.0622559 30.3248 0.0622559 26.7467C0.0622559 22.8271 2.67792 19.9941 6.22497 19.9941H6.28706C9.46155 19.9941 11.4175 21.6706 14.7472 25.4971L19.9087 31.3183V20.7703C19.9087 20.1494 20.4054 19.6216 21.0263 19.6216C21.6473 19.6216 22.144 20.1494 22.144 20.7703V33.8641C22.144 34.5782 21.6783 35.106 20.9953 35.106C20.5296 35.106 20.1881 34.9197 19.8466 34.5161V34.5239Z" fill="white"/>
<path d="M16.9906 5.90658V16.734C16.9906 17.4481 16.4938 17.9759 15.8108 17.9759C15.3761 17.9759 15.0346 17.8206 14.631 17.5102L0.807614 6.186C0.341918 5.81344 0.0625 5.47193 0.0625 4.81995C0.0625 4.07484 0.621335 3.51601 1.3354 3.51601H14.9337V1.05558C14.9337 0.496742 15.3994 0 15.9893 0C16.5481 0 16.9828 0.496742 16.9828 1.05558V3.51601H21.1197C21.7717 3.51601 22.2995 4.04379 22.2995 4.72681C22.2995 5.37879 21.7717 5.90658 21.1197 5.90658H16.9828H16.9906ZM14.9337 5.90658H3.70269L14.9337 15.0497V5.90658Z" fill="white"/>
<path d="M42.4718 28.3296L34.4541 5.62696C34.2833 5.17679 34.1125 4.43944 34.1125 3.8806C34.1125 2.2429 35.4087 0.721629 37.4423 0.721629C39.1343 0.721629 40.2675 1.84706 40.772 3.43043L46.5311 21.4994L52.3445 3.43043C52.8568 1.84706 54.0909 0.721629 55.845 0.721629H56.2409C57.9872 0.721629 59.2291 1.84706 59.7414 3.43043L65.6169 21.4994L71.4303 3.36833C71.8805 1.90139 72.9516 0.713867 74.76 0.713867C76.5685 0.713867 77.9811 2.18081 77.9811 3.87284C77.9811 4.3851 77.8104 5.06036 77.7017 5.40187L69.5675 28.3296C68.8302 30.4175 67.4176 31.38 65.7799 31.38H65.5548C63.855 31.38 62.4502 30.4175 61.8292 28.4461L56.0158 10.7108L50.1403 28.4461C49.5193 30.4253 48.1067 31.38 46.469 31.38H46.2439C44.5519 31.38 43.1393 30.4175 42.464 28.3296" fill="white"/>
<path d="M101.242 20.1413V18.1078C99.4961 17.4325 97.1754 16.9203 94.4666 16.9203C90.058 16.9203 87.4656 18.7831 87.4656 21.8877V22.0041C87.4656 24.8837 90.0037 26.5214 93.2791 26.5214C97.7963 26.5214 101.242 23.9212 101.242 20.1413ZM80.7984 22.2913V22.1749C80.7984 15.7405 85.8202 12.5738 93.1083 12.5738C96.438 12.5738 98.8131 13.086 101.126 13.8156V13.086C101.126 8.84821 98.5259 6.58958 93.7292 6.58958C91.1291 6.58958 88.9869 7.03975 87.1241 7.77711C86.7283 7.89353 86.3868 7.94786 86.053 7.94786C84.4696 7.94786 83.1735 6.70601 83.1735 5.12264C83.1735 3.88078 84.0195 2.80968 85.0362 2.41384C87.8615 1.34274 90.741 0.66748 94.6373 0.66748C99.1003 0.66748 102.43 1.85501 104.518 3.99721C106.722 6.13941 107.739 9.30614 107.739 13.2025V27.8874C107.739 29.7502 106.272 31.1628 104.409 31.1628C102.43 31.1628 101.079 29.8045 101.079 28.2833V27.1578C99.0459 29.5872 95.9413 31.5043 91.3697 31.5043C85.7814 31.5043 80.8062 28.2833 80.8062 22.2991" fill="white"/>
<path d="M156.163 13.8703C155.713 9.46175 153.113 6.02336 148.596 6.02336C144.42 6.02336 141.479 9.24442 140.858 13.8703H156.163ZM149.388 31.5435C140.749 31.5435 134.082 25.2721 134.082 16.0746V15.9582C134.082 7.42821 140.128 0.427246 148.65 0.427246C158.135 0.427246 162.823 8.21989 162.823 15.1122C162.823 17.0293 161.356 18.3876 159.602 18.3876H140.904C141.634 23.2464 145.088 25.9552 149.489 25.9552C152.368 25.9552 154.627 24.9384 156.544 23.355C157.056 22.9592 157.506 22.7341 158.29 22.7341C159.819 22.7341 160.999 23.9216 160.999 25.4972C160.999 26.3432 160.603 27.0806 160.091 27.5851C157.382 30.0145 153.99 31.5357 149.364 31.5357" fill="white"/>
<path d="M169.047 4.16015C169.047 2.24303 170.514 0.713999 172.431 0.713999C174.349 0.713999 175.878 2.23527 175.878 4.16015V7.21046C177.461 3.48489 180.395 0.659668 183.391 0.659668C185.533 0.659668 186.783 2.07228 186.783 4.04373C186.783 5.85218 185.595 7.0397 184.074 7.31912C179.215 8.16514 175.885 11.8907 175.885 18.9538V27.7632C175.885 29.626 174.364 31.155 172.439 31.155C170.514 31.155 169.055 29.6881 169.055 27.7632V4.16015H169.047Z" fill="white"/>
<path d="M116.114 22.6407V6.9312H112.179C110.541 6.9312 109.245 5.63501 109.245 3.99731C109.245 2.35961 110.541 1.05566 112.179 1.05566H128.315C129.953 1.05566 131.311 2.35185 131.311 3.99731C131.311 5.64277 129.953 6.9312 128.315 6.9312H122.944V21.5696C122.944 24.224 124.302 25.3029 126.615 25.3029C127.407 25.3029 128.082 25.1321 128.307 25.1321C129.836 25.1321 131.187 26.374 131.187 27.9574C131.187 29.1992 130.341 30.216 129.378 30.6118C127.911 31.1163 126.499 31.4035 124.69 31.4035C119.661 31.4035 116.106 29.1992 116.106 22.6484" fill="white"/>
<path d="M34.1125 58.8331V58.7166C34.1125 50.2487 40.6633 43.1313 49.6435 43.1313C54.3315 43.1313 57.5526 44.6604 60.0906 46.8569C60.5408 47.2528 61.1617 48.0988 61.1617 49.2242C61.1617 50.9783 59.7491 52.3288 58.0028 52.3288C57.1567 52.3288 56.4194 51.9873 55.9692 51.6536C54.2229 50.1866 52.298 49.1155 49.5892 49.1155C44.6218 49.1155 40.9505 53.4077 40.9505 58.6002V58.7089C40.9505 64.0178 44.6218 68.2556 49.8764 68.2556C52.5852 68.2556 54.673 67.1845 56.5436 65.6012C56.9394 65.2597 57.6147 64.8638 58.4064 64.8638C60.0441 64.8638 61.3402 66.2221 61.3402 67.8598C61.3402 68.7602 60.9987 69.4975 60.3778 70.0098C57.7233 72.5478 54.5023 74.2476 49.5348 74.2476C40.6711 74.2476 34.1203 67.301 34.1203 58.8331" fill="white"/>
<path d="M90.0423 58.833V58.7166C90.0423 53.462 86.2624 49.1155 80.8991 49.1155C75.5359 49.1155 71.919 53.4077 71.919 58.6002V58.7088C71.919 63.9013 75.7066 68.2556 81.0156 68.2556C86.3245 68.2556 90.0501 63.9634 90.0501 58.8253M65.0888 58.8253V58.7088C65.0888 50.1788 71.8646 43.1235 81.0156 43.1235C90.1665 43.1235 96.8803 50.0702 96.8803 58.6002V58.7088C96.8803 67.1767 90.1044 74.2398 80.8991 74.2398C71.6939 74.2398 65.081 67.2932 65.081 58.8253" fill="white"/>
<path d="M103.098 46.8647C103.098 44.9476 104.565 43.4186 106.489 43.4186C108.414 43.4186 109.936 44.9399 109.936 46.8647V48.3317C111.86 45.5685 114.624 43.1392 119.257 43.1392C125.979 43.1392 129.875 47.6564 129.875 54.5487V70.4755C129.875 72.3926 128.408 73.8673 126.491 73.8673C124.574 73.8673 123.045 72.4004 123.045 70.4755V56.6443C123.045 52.0107 120.732 49.3562 116.665 49.3562C112.598 49.3562 109.943 52.1193 109.943 56.753V70.4755C109.943 72.3926 108.422 73.8673 106.497 73.8673C104.572 73.8673 103.105 72.4004 103.105 70.4755V46.8725L103.098 46.8647Z" fill="white"/>
<path d="M170.367 46.8642C170.367 44.9471 171.834 43.4181 173.751 43.4181C175.668 43.4181 177.197 44.9394 177.197 46.8642V49.9146C178.781 46.189 181.715 43.3638 184.711 43.3638C186.853 43.3638 188.102 44.7764 188.102 46.7478C188.102 48.5563 186.915 49.7438 185.394 50.0232C180.535 50.8692 177.205 54.5948 177.205 61.6579V70.4673C177.205 72.3301 175.684 73.8591 173.759 73.8591C171.834 73.8591 170.375 72.3922 170.375 70.4673V46.8642H170.367Z" fill="white"/>
<path d="M212.28 56.5744C211.83 52.1659 209.229 48.7275 204.712 48.7275C200.536 48.7275 197.595 51.9485 196.974 56.5744H212.28ZM205.504 74.2476C196.865 74.2476 190.198 67.9762 190.198 58.7787V58.6623C190.198 50.1323 196.244 43.1313 204.766 43.1313C214.251 43.1313 218.939 50.924 218.939 57.8163C218.939 59.7334 217.472 61.0917 215.718 61.0917H197.02C197.75 65.9505 201.204 68.6593 205.605 68.6593C208.484 68.6593 210.743 67.6425 212.66 66.0591C213.172 65.6633 213.622 65.4382 214.406 65.4382C215.935 65.4382 217.115 66.6257 217.115 68.2013C217.115 69.0473 216.719 69.7847 216.207 70.2892C213.498 72.7186 210.106 74.2398 205.481 74.2398" fill="white"/>
<path d="M223.945 70.5761C223.216 70.1803 222.649 69.3342 222.649 68.201C222.649 66.6798 223.836 65.4379 225.412 65.4379C225.979 65.4379 226.483 65.6087 226.879 65.8338C229.759 67.7509 232.755 68.7133 235.463 68.7133C238.397 68.7133 240.097 67.4715 240.097 65.4923V65.3836C240.097 63.0706 236.938 62.279 233.43 61.2001C229.021 59.9582 224.108 58.1498 224.108 52.445V52.3286C224.108 46.6859 228.796 43.2397 234.726 43.2397C237.885 43.2397 241.222 44.1401 244.102 45.6691C245.064 46.1814 245.74 47.0817 245.74 48.2693C245.74 49.8526 244.498 51.0324 242.914 51.0324C242.356 51.0324 242.006 50.9237 241.564 50.6909C239.135 49.449 236.651 48.6573 234.563 48.6573C231.909 48.6573 230.387 49.8992 230.387 51.5912V51.6999C230.387 53.9042 233.608 54.8045 237.109 55.9377C241.455 57.296 246.368 59.2675 246.368 64.6385V64.7471C246.368 71.0185 241.51 74.1232 235.3 74.1232C231.52 74.1232 227.391 72.9356 223.945 70.5683" fill="white"/>
<path d="M251.577 70.5761C250.839 70.1803 250.28 69.3342 250.28 68.201C250.28 66.6798 251.468 65.4379 253.044 65.4379C253.61 65.4379 254.115 65.6087 254.511 65.8338C257.39 67.7509 260.386 68.7133 263.095 68.7133C266.029 68.7133 267.729 67.4715 267.729 65.4923V65.3836C267.729 63.0706 264.57 62.279 261.069 61.2001C256.66 59.9582 251.747 58.1498 251.747 52.445V52.3286C251.747 46.6859 256.435 43.2397 262.365 43.2397C265.524 43.2397 268.862 44.1401 271.741 45.6691C272.704 46.1814 273.379 47.0817 273.379 48.2693C273.379 49.8526 272.137 51.0324 270.554 51.0324C269.995 51.0324 269.653 50.9237 269.203 50.6909C266.774 49.449 264.29 48.6573 262.202 48.6573C259.548 48.6573 258.019 49.8992 258.019 51.5912V51.6999C258.019 53.9042 261.24 54.8045 264.74 55.9377C269.087 57.296 274 59.2675 274 64.6385V64.7471C274 71.0185 269.141 74.1232 262.932 74.1232C259.144 74.1232 255.023 72.9356 251.577 70.5683" fill="white"/>
<path d="M151.476 48.7196C145.437 48.7196 142.899 53.167 142.899 58.6002V58.6855C142.899 64.6232 146.702 68.6359 152.05 68.6359C157.398 68.6359 159.02 66.4161 159.02 66.4161V61.4021H153.587C152.244 61.4021 151.15 60.3155 151.15 58.965C151.15 57.6144 152.244 56.5123 153.587 56.5123H161.193C163.048 56.5123 164.515 57.9715 164.515 59.8187V66.8119C164.515 68.7446 163.786 70.0796 162.187 71.0187C159.734 72.5245 156.257 74.232 151.724 74.232C142.317 74.232 136.162 67.6657 136.162 58.7632V58.6778C136.162 50.1245 142.232 43.1235 151.382 43.1235C156.016 43.1235 159.408 44.6526 162.125 47.0742C162.629 47.5865 163.025 48.3238 163.025 49.1621C163.025 50.7454 161.837 51.933 160.308 51.933C159.517 51.933 159.066 51.7079 158.554 51.312C156.637 49.7287 154.347 48.7041 151.468 48.7041" fill="white"/>
</svg>
