<svg width="400" height="109" viewBox="0 0 400 109" fill="none" xmlns="http://www.w3.org/2000/svg">
<path d="M28.9217 108.163L19.353 97.3276C14.9984 92.4301 12.5553 90.7109 9.37704 90.7109C5.65586 90.7109 3.30326 93.663 3.30326 97.1014C3.30326 100.461 4.93199 102.723 7.92928 104.985C8.29122 105.256 8.56268 105.709 8.56268 106.297C8.56268 107.202 7.8388 107.926 6.93395 107.926C6.57202 107.926 6.21008 107.79 5.93862 107.564C2.26269 104.94 0.0910645 102.033 0.0910645 96.8186C0.0910645 91.1068 3.90272 86.9785 9.07165 86.9785H9.16214C13.7882 86.9785 16.6384 89.4215 21.4906 94.9976L29.0122 103.481V88.1095C29.0122 87.2047 29.736 86.4355 30.6409 86.4355C31.5457 86.4355 32.2696 87.2047 32.2696 88.1095V107.19C32.2696 108.231 31.591 109 30.5956 109C29.917 109 29.4194 108.729 28.9217 108.141V108.163Z" fill="white"/>
<path d="M16.5021 81.685H16.4116C7.52152 81.685 0 76.3804 0 68.2255C0 60.0592 7.43104 54.9016 16.3211 54.9016H16.4116C25.3017 54.9016 32.8233 60.161 32.8233 68.3159C32.8233 76.5161 25.3922 81.685 16.5021 81.685ZM16.5021 58.6115H16.4116C9.47825 58.6115 3.26875 62.4231 3.26875 68.3159C3.26875 74.254 9.34253 77.9752 16.3211 77.9752H16.4116C23.345 77.9752 29.5545 74.1635 29.5545 68.2255C29.5545 62.2874 23.4355 58.6115 16.5021 58.6115Z" fill="white"/>
<path d="M28.9217 50.3095L19.353 39.474C14.9984 34.5765 12.5553 32.8573 9.37704 32.8573C5.65586 32.8573 3.30326 35.8094 3.30326 39.2478C3.30326 42.607 4.93199 44.8692 7.92928 47.1313C8.29122 47.4027 8.56268 47.8552 8.56268 48.4433C8.56268 49.3481 7.8388 50.072 6.93395 50.072C6.57202 50.072 6.21008 49.9363 5.93862 49.7101C2.26269 47.0973 0.0910645 44.1905 0.0910645 38.9764C0.0910645 33.2645 3.90272 29.1362 9.07165 29.1362H9.16214C13.7882 29.1362 16.6384 31.5793 21.4906 37.1554L29.0122 45.6383V30.2672C29.0122 29.3624 29.736 28.5933 30.6409 28.5933C31.5457 28.5933 32.2696 29.3624 32.2696 30.2672V49.3481C32.2696 50.3887 31.591 51.1578 30.5956 51.1578C29.917 51.1578 29.4194 50.8864 28.9217 50.2982V50.3095Z" fill="white"/>
<path d="M24.7594 8.60734V24.3856C24.7594 25.4261 24.0355 26.1953 23.0402 26.1953C22.4068 26.1953 21.9091 25.9691 21.321 25.5166L1.17688 9.01452C0.498245 8.47161 0.0910645 7.97395 0.0910645 7.02386C0.0910645 5.93805 0.905425 5.12368 1.946 5.12368H21.7621V1.53824C21.7621 0.723876 22.4407 0 23.3003 0C24.1147 0 24.7481 0.723876 24.7481 1.53824V5.12368H30.7766C31.7267 5.12368 32.4958 5.8928 32.4958 6.88813C32.4958 7.83822 31.7267 8.60734 30.7766 8.60734H24.7481H24.7594ZM21.7621 8.60734H5.39572L21.7621 21.9312V8.60734Z" fill="white"/>
<path d="M61.8918 41.2833L50.208 8.19987C49.9592 7.54386 49.7103 6.46935 49.7103 5.65499C49.7103 3.26846 51.5992 1.05159 54.5626 1.05159C57.0283 1.05159 58.6796 2.69163 59.4148 4.99898L67.8072 31.33L76.2788 4.99898C77.0253 2.69163 78.8237 1.05159 81.3799 1.05159H81.9567C84.5016 1.05159 86.3113 2.69163 87.0578 4.99898L95.6199 31.33L104.092 4.9085C104.748 2.7708 106.308 1.04028 108.944 1.04028C111.579 1.04028 113.638 3.17798 113.638 5.64368C113.638 6.39018 113.389 7.3742 113.23 7.87186L101.377 41.2833C100.302 44.3258 98.2439 45.7283 95.8574 45.7283H95.5294C93.0524 45.7283 91.0052 44.3258 90.1003 41.4529L81.6287 15.6083L73.0666 41.4529C72.1618 44.3371 70.1033 45.7283 67.7167 45.7283H67.3887C64.923 45.7283 62.8645 44.3258 61.8805 41.2833" fill="white"/>
<path d="M147.535 29.3511V26.3877C144.99 25.4037 141.608 24.6572 137.661 24.6572C131.237 24.6572 127.459 27.3717 127.459 31.896V32.0656C127.459 36.2619 131.157 38.6484 135.931 38.6484C142.513 38.6484 147.535 34.8593 147.535 29.3511ZM117.743 32.4841V32.3145C117.743 22.938 125.061 18.3233 135.682 18.3233C140.534 18.3233 143.995 19.0698 147.366 20.133V19.0698C147.366 12.8942 143.576 9.60286 136.587 9.60286C132.798 9.60286 129.676 10.2589 126.961 11.3334C126.384 11.503 125.887 11.5822 125.4 11.5822C123.093 11.5822 121.204 9.77252 121.204 7.46516C121.204 5.65547 122.437 4.09462 123.919 3.51778C128.036 1.95692 132.232 0.9729 137.91 0.9729C144.413 0.9729 149.266 2.70342 152.308 5.82513C155.52 8.94685 157.002 13.5616 157.002 19.2395V40.639C157.002 43.3536 154.864 45.4121 152.15 45.4121C149.266 45.4121 147.298 43.4328 147.298 41.2159V39.5758C144.334 43.1161 139.81 45.9098 133.148 45.9098C125.005 45.9098 117.754 41.2159 117.754 32.4954" fill="white"/>
<path d="M227.569 20.2122C226.913 13.7878 223.124 8.77723 216.541 8.77723C210.456 8.77723 206.169 13.4711 205.264 20.2122H227.569ZM217.695 45.9664C205.106 45.9664 195.39 36.8274 195.39 23.4244V23.2547C195.39 10.8244 204.201 0.622314 216.62 0.622314C230.442 0.622314 237.273 11.9781 237.273 22.0219C237.273 24.8156 235.136 26.795 232.579 26.795H205.332C206.395 33.8754 211.429 37.8228 217.842 37.8228C222.038 37.8228 225.329 36.3411 228.123 34.0337C228.87 33.4569 229.526 33.1289 230.668 33.1289C232.896 33.1289 234.615 34.8594 234.615 37.1554C234.615 38.3883 234.038 39.4628 233.292 40.198C229.345 43.7382 224.402 45.955 217.661 45.955" fill="white"/>
<path d="M246.344 6.06273C246.344 3.26902 248.481 1.04084 251.275 1.04084C254.069 1.04084 256.297 3.25771 256.297 6.06273V10.5078C258.604 5.07872 262.88 0.96167 267.246 0.96167C270.367 0.96167 272.188 3.02019 272.188 5.89307C272.188 8.52844 270.458 10.259 268.241 10.6661C261.161 11.899 256.308 17.3281 256.308 27.6207V40.4582C256.308 43.1727 254.091 45.4009 251.286 45.4009C248.481 45.4009 246.355 43.2632 246.355 40.4582V6.06273H246.344Z" fill="white"/>
<path d="M169.206 32.993V10.1004H163.472C161.085 10.1004 159.196 8.21156 159.196 5.82503C159.196 3.4385 161.085 1.53833 163.472 1.53833H186.986C189.373 1.53833 191.352 3.42719 191.352 5.82503C191.352 8.22287 189.373 10.1004 186.986 10.1004H179.159V31.4321C179.159 35.3004 181.139 36.8725 184.509 36.8725C185.663 36.8725 186.647 36.6237 186.975 36.6237C189.203 36.6237 191.171 38.4334 191.171 40.7407C191.171 42.5504 189.938 44.0321 188.536 44.609C186.398 45.3441 184.34 45.7626 181.704 45.7626C174.375 45.7626 169.195 42.5504 169.195 33.0043" fill="white"/>
<path d="M49.7103 85.734V85.5644C49.7103 73.2246 59.2564 62.8528 72.3428 62.8528C79.1743 62.8528 83.8682 65.081 87.5668 68.2819C88.2228 68.8587 89.1276 70.0915 89.1276 71.7316C89.1276 74.2878 87.0691 76.2558 84.5242 76.2558C83.2914 76.2558 82.2169 75.7581 81.5609 75.2718C79.016 73.1341 76.211 71.5732 72.2636 71.5732C65.0248 71.5732 59.6749 77.828 59.6749 85.3947V85.5531C59.6749 93.2895 65.0248 99.4651 72.6821 99.4651C76.6295 99.4651 79.672 97.9042 82.3979 95.5969C82.9747 95.0992 83.9587 94.5224 85.1124 94.5224C87.4989 94.5224 89.3878 96.5017 89.3878 98.8882C89.3878 100.2 88.8901 101.275 87.9853 102.021C84.1171 105.72 79.4232 108.197 72.1844 108.197C59.2678 108.197 49.7216 98.0739 49.7216 85.734" fill="white"/>
<path d="M131.214 85.7341V85.5645C131.214 77.9072 125.706 71.5733 117.89 71.5733C110.074 71.5733 104.804 77.828 104.804 85.3948V85.5532C104.804 93.1199 110.323 99.4651 118.06 99.4651C125.796 99.4651 131.225 93.2104 131.225 85.7228M94.8503 85.7228V85.5532C94.8503 73.1229 104.724 62.8416 118.06 62.8416C131.395 62.8416 141.178 72.9645 141.178 85.3948V85.5532C141.178 97.893 131.304 108.186 117.89 108.186C104.476 108.186 94.839 98.0626 94.839 85.7228" fill="white"/>
<path d="M150.239 68.2931C150.239 65.4994 152.376 63.2712 155.181 63.2712C157.986 63.2712 160.203 65.4881 160.203 68.2931V70.4308C163.008 66.4042 167.035 62.864 173.787 62.864C183.582 62.864 189.26 69.4468 189.26 79.4905V102.7C189.26 105.494 187.122 107.643 184.329 107.643C181.535 107.643 179.307 105.505 179.307 102.7V82.5444C179.307 75.792 175.936 71.9238 170.009 71.9238C164.083 71.9238 160.214 75.9503 160.214 82.7027V102.7C160.214 105.494 157.998 107.643 155.193 107.643C152.388 107.643 150.25 105.505 150.25 102.7V68.3044L150.239 68.2931Z" fill="white"/>
<path d="M248.267 68.2932C248.267 65.4995 250.405 63.2713 253.198 63.2713C255.992 63.2713 258.22 65.4882 258.22 68.2932V72.7383C260.527 67.3092 264.803 63.1921 269.169 63.1921C272.29 63.1921 274.111 65.2507 274.111 68.1235C274.111 70.7589 272.381 72.4894 270.164 72.8966C263.084 74.1295 258.231 79.5585 258.231 89.8511V102.689C258.231 105.403 256.015 107.631 253.21 107.631C250.405 107.631 248.278 105.494 248.278 102.689V68.2932H248.267Z" fill="white"/>
<path d="M309.344 82.4427C308.688 76.0183 304.899 71.0077 298.316 71.0077C292.231 71.0077 287.944 75.7016 287.039 82.4427H309.344ZM299.47 108.197C286.881 108.197 277.165 99.0579 277.165 85.6549V85.4852C277.165 73.0549 285.976 62.8528 298.395 62.8528C312.217 62.8528 319.048 74.2086 319.048 84.2524C319.048 87.0461 316.91 89.0254 314.354 89.0254H287.107C288.17 96.1058 293.204 100.053 299.617 100.053C303.813 100.053 307.104 98.5715 309.898 96.2642C310.644 95.6873 311.3 95.3593 312.443 95.3593C314.671 95.3593 316.39 97.0898 316.39 99.3859C316.39 100.619 315.813 101.693 315.067 102.428C311.119 105.969 306.177 108.186 299.436 108.186" fill="white"/>
<path d="M326.343 102.847C325.28 102.27 324.454 101.037 324.454 99.3858C324.454 97.1689 326.185 95.3592 328.481 95.3592C329.307 95.3592 330.042 95.608 330.619 95.936C334.815 98.7297 339.181 100.132 343.128 100.132C347.404 100.132 349.881 98.3226 349.881 95.4384V95.28C349.881 91.9095 345.277 90.7558 340.165 89.1836C333.74 87.3739 326.581 84.7386 326.581 76.4253V76.2557C326.581 68.0329 333.412 63.011 342.054 63.011C346.657 63.011 351.521 64.323 355.717 66.5512C357.119 67.2977 358.103 68.6097 358.103 70.3402C358.103 72.6476 356.294 74.3668 353.986 74.3668C353.172 74.3668 352.663 74.2084 352.018 73.8691C348.478 72.0594 344.859 70.9058 341.816 70.9058C337.948 70.9058 335.731 72.7155 335.731 75.1812V75.3395C335.731 78.5517 340.425 79.8637 345.526 81.5151C351.86 83.4944 359.02 86.3673 359.02 94.1942V94.3526C359.02 103.491 351.939 108.016 342.891 108.016C337.382 108.016 331.365 106.285 326.343 102.835" fill="white"/>
<path d="M366.609 102.847C365.535 102.27 364.72 101.037 364.72 99.3858C364.72 97.1689 366.451 95.3592 368.747 95.3592C369.573 95.3592 370.308 95.608 370.885 95.936C375.081 98.7297 379.447 100.132 383.394 100.132C387.669 100.132 390.146 98.3226 390.146 95.4384V95.28C390.146 91.9095 385.543 90.7558 380.442 89.1836C374.018 87.3739 366.858 84.7386 366.858 76.4253V76.2557C366.858 68.0329 373.69 63.011 382.331 63.011C386.934 63.011 391.798 64.323 395.994 66.5512C397.397 67.2977 398.381 68.6097 398.381 70.3402C398.381 72.6476 396.571 74.3668 394.264 74.3668C393.449 74.3668 392.952 74.2084 392.295 73.8691C388.755 72.0594 385.136 70.9058 382.093 70.9058C378.225 70.9058 375.997 72.7155 375.997 75.1812V75.3395C375.997 78.5517 380.691 79.8637 385.792 81.5151C392.126 83.4944 399.285 86.3673 399.285 94.1942V94.3526C399.285 103.491 392.205 108.016 383.157 108.016C377.637 108.016 371.631 106.285 366.609 102.835" fill="white"/>
<path d="M220.737 70.9965C211.938 70.9965 208.239 77.4774 208.239 85.3948V85.5192C208.239 94.1718 213.781 100.019 221.574 100.019C229.367 100.019 231.731 96.7846 231.731 96.7846V89.4779H223.814C221.857 89.4779 220.262 87.8945 220.262 85.9264C220.262 83.9584 221.857 82.3523 223.814 82.3523H234.898C237.601 82.3523 239.739 84.4787 239.739 87.1706V97.3614C239.739 100.178 238.676 102.123 236.346 103.492C232.772 105.686 227.704 108.174 221.099 108.174C207.391 108.174 198.421 98.6056 198.421 85.6323V85.5079C198.421 73.0437 207.266 62.8416 220.601 62.8416C227.354 62.8416 232.297 65.0697 236.255 68.5986C236.99 69.3451 237.567 70.4196 237.567 71.6412C237.567 73.9485 235.837 75.679 233.609 75.679C232.455 75.679 231.799 75.351 231.052 74.7742C228.259 72.4668 224.922 70.9738 220.726 70.9738" fill="white"/>
</svg>
