<svg width="299" height="20" viewBox="0 0 299 20" fill="none" xmlns="http://www.w3.org/2000/svg">
<path d="M237.5 16.8523L243.662 11.4235C246.448 8.95302 247.425 7.56436 247.425 5.76264C247.425 3.65408 245.751 2.31263 243.792 2.31263C241.834 2.31263 240.597 3.23709 239.309 4.93653C239.155 5.14109 238.895 5.29845 238.56 5.29845C238.044 5.29845 237.634 4.88539 237.634 4.37398C237.634 4.16942 237.713 3.96092 237.839 3.8075C239.332 1.72254 240.983 0.487305 243.95 0.487305C247.197 0.487305 249.545 2.65094 249.545 5.58169V5.63283C249.545 8.25673 248.154 9.88142 244.982 12.6312L240.164 16.9034H248.903C249.419 16.9034 249.856 17.3165 249.856 17.8318C249.856 18.3471 249.419 18.7602 248.903 18.7602H238.052C237.461 18.7602 237.02 18.3747 237.02 17.8082C237.02 17.4227 237.173 17.1394 237.508 16.8562L237.5 16.8523Z" fill="white"/>
<path d="M252.556 9.80264V9.7515C252.556 4.70433 255.57 0.432129 260.211 0.432129C264.852 0.432129 267.788 4.65319 267.788 9.69643V9.74757C267.788 14.7908 264.797 19.063 260.156 19.063C255.515 19.063 252.552 14.8419 252.552 9.79871L252.556 9.80264ZM265.676 9.80264V9.7515C265.676 5.81368 263.509 2.28892 260.16 2.28892C256.811 2.28892 254.671 5.73894 254.671 9.70036V9.7515C254.671 13.6893 256.839 17.2141 260.215 17.2141C263.592 17.2141 265.68 13.7405 265.68 9.80264H265.676Z" fill="white"/>
<path d="M270.392 16.8523L276.554 11.4235C279.34 8.95302 280.317 7.56436 280.317 5.76264C280.317 3.65408 278.642 2.31263 276.684 2.31263C274.726 2.31263 273.489 3.23709 272.2 4.93653C272.047 5.14109 271.787 5.29845 271.452 5.29845C270.936 5.29845 270.526 4.88539 270.526 4.37398C270.526 4.16942 270.605 3.96092 270.731 3.8075C272.224 1.72254 273.875 0.487305 276.842 0.487305C280.088 0.487305 282.436 2.65094 282.436 5.58169V5.63283C282.436 8.25673 281.046 9.88142 277.874 12.6312L273.055 16.9034H281.794C282.31 16.9034 282.748 17.3165 282.748 17.8318C282.748 18.3471 282.31 18.7602 281.794 18.7602H270.943C270.352 18.7602 269.911 18.3747 269.911 17.8082C269.911 17.4227 270.065 17.1394 270.4 16.8562L270.392 16.8523Z" fill="white"/>
<path d="M294.106 14.4841H285.135C284.544 14.4841 284.103 14.0711 284.103 13.5046C284.103 13.1427 284.233 12.8594 284.489 12.525L293.87 1.09711C294.177 0.711591 294.461 0.479492 295.005 0.479492C295.623 0.479492 296.088 0.943691 296.088 1.53377V12.7847H298.125C298.59 12.7847 299 13.1702 299 13.658C299 14.1222 298.586 14.4802 298.125 14.4802H296.088V17.9027C296.088 18.4416 295.651 18.8822 295.083 18.8822C294.516 18.8822 294.102 18.4455 294.102 17.9027V14.4802L294.106 14.4841ZM294.106 12.7847V3.49678L286.53 12.7886H294.106V12.7847Z" fill="white"/>
<path d="M4.95408 16.6884L0.202288 3.85955C0.103127 3.60615 0 3.19012 0 2.87243C0 1.94581 0.769489 1.0835 1.97529 1.0835C2.9788 1.0835 3.64912 1.72267 3.94661 2.61524L7.36171 12.8269L10.8085 2.61524C11.11 1.72267 11.8438 1.0835 12.887 1.0835H13.121C14.1562 1.0835 14.894 1.72267 15.1954 2.61524L18.678 12.8269L22.1208 2.58499C22.3866 1.75671 23.0212 1.08728 24.0921 1.08728C25.1631 1.08728 26 1.91556 26 2.87243C26 3.15987 25.9008 3.54186 25.8334 3.73474L21.0142 16.6922C20.5779 17.8722 19.741 18.4168 18.7692 18.4168H18.6343C17.6308 18.4168 16.7939 17.876 16.425 16.7565L12.9782 6.73773L9.49565 16.7565C9.12677 17.8722 8.28986 18.4168 7.32204 18.4168H7.18719C6.18368 18.4168 5.34676 17.876 4.94615 16.6922" fill="white"/>
<path d="M39.4128 12.0396V10.8958C38.3591 10.5158 36.9582 10.2299 35.3271 10.2299C32.6706 10.2299 31.1041 11.2758 31.1041 13.0216V13.0855C31.1041 14.7034 32.6383 15.6251 34.6125 15.6251C37.3377 15.6251 39.4169 14.1653 39.4169 12.0358M27.083 13.2435V13.1796C27.083 9.56016 30.115 7.78431 34.5075 7.78431C36.5181 7.78431 37.9473 8.07026 39.3442 8.48412V8.07026C39.3442 5.68866 37.7777 4.41697 34.883 4.41697C33.3165 4.41697 32.0206 4.67282 30.8982 5.08292C30.66 5.14688 30.4541 5.17698 30.2523 5.17698C29.2995 5.17698 28.5162 4.47717 28.5162 3.58925C28.5162 2.88944 29.0249 2.28746 29.6386 2.06548C31.3423 1.4635 33.0783 1.0835 35.428 1.0835C38.1209 1.0835 40.1274 1.74944 41.3911 2.95717C42.7193 4.16113 43.333 5.94074 43.333 8.13045V16.3851C43.333 17.4311 42.4488 18.2249 41.3224 18.2249C40.1315 18.2249 39.3119 17.4649 39.3119 16.6071V15.9713C38.0886 17.337 36.2113 18.4168 33.4538 18.4168C30.0827 18.4168 27.083 16.6071 27.083 13.2435Z" fill="white"/>
<path d="M71.8138 7.95454C71.5434 5.34792 69.9775 3.30779 67.2494 3.30779C64.7311 3.30779 62.9594 5.21324 62.5841 7.95454H71.8097H71.8138ZM67.7296 18.4167C62.5196 18.4167 58.5 14.7048 58.5 9.25785V9.19051C58.5 4.14365 62.1483 0 67.2857 0C73.0083 0 75.8333 4.6111 75.8333 8.69137C75.8333 9.8283 74.9495 10.6285 73.8922 10.6285H62.6205C63.0644 13.5045 65.1428 15.1089 67.7983 15.1089C69.5336 15.1089 70.8977 14.5067 72.0559 13.5718C72.3626 13.3381 72.6371 13.2034 73.1092 13.2034C74.0294 13.2034 74.7437 13.9046 74.7437 14.8395C74.7437 15.3426 74.5056 15.7744 74.1989 16.0755C72.5644 17.5135 70.5224 18.4167 67.7296 18.4167Z" fill="white"/>
<path d="M79.083 3.07325C79.083 1.98136 79.9786 1.11393 81.1523 1.11393C82.3261 1.11393 83.2585 1.98136 83.2585 3.07325V4.80811C84.2236 2.689 86.019 1.0835 87.847 1.0835C89.1557 1.0835 89.9163 1.88625 89.9163 3.00858C89.9163 4.03579 89.1925 4.70919 88.2601 4.87279C85.2951 5.35215 83.2585 7.47126 83.2585 11.485V16.4918C83.2585 17.5532 82.3261 18.4168 81.1523 18.4168C79.9786 18.4168 79.083 17.5836 79.083 16.4918V3.07325Z" fill="white"/>
<path d="M48.4664 13.4153V4.4408H46.148C45.1819 4.4408 44.417 3.69898 44.417 2.76215C44.417 1.82532 45.1819 1.0835 46.148 1.0835H55.6545C56.6205 1.0835 57.417 1.82532 57.417 2.76215C57.417 3.69898 56.6166 4.4408 55.6545 4.4408H52.4922V12.7997C52.4922 14.3177 53.2926 14.9295 54.6569 14.9295C55.1222 14.9295 55.5204 14.8339 55.6545 14.8339C56.5535 14.8339 57.3539 15.5452 57.3539 16.4476C57.3539 17.1588 56.8531 17.74 56.2893 17.9656C55.4258 18.2562 54.5938 18.4168 53.5253 18.4168C50.5641 18.4168 48.4664 17.1588 48.4664 13.4153Z" fill="white"/>
<path d="M92.083 9.2955V9.22815C92.083 4.2119 95.7339 0 100.735 0C103.345 0 105.139 0.903399 106.556 2.20699C106.81 2.44076 107.153 2.94001 107.153 3.60964C107.153 4.64775 106.366 5.44813 105.393 5.44813C104.919 5.44813 104.512 5.24606 104.259 5.04794C103.286 4.1802 102.215 3.54228 100.705 3.54228C97.9379 3.54228 95.8905 6.0821 95.8905 9.15683V9.22418C95.8905 12.3663 97.9379 14.8744 100.862 14.8744C102.372 14.8744 103.535 14.2404 104.576 13.3014C104.796 13.0993 105.173 12.8655 105.613 12.8655C106.522 12.8655 107.25 13.6659 107.25 14.6367C107.25 15.1716 107.059 15.6074 106.713 15.9085C105.236 17.4142 103.438 18.4167 100.671 18.4167C95.7302 18.4167 92.083 14.3038 92.083 9.28758" fill="white"/>
<path d="M124.726 9.2935V9.22616C124.726 6.11644 122.406 3.54548 119.114 3.54548C115.821 3.54548 113.604 6.08475 113.604 9.15882V9.22616C113.604 12.3002 115.928 14.8752 119.183 14.8752C122.439 14.8752 124.726 12.3359 124.726 9.2935ZM109.417 9.2935V9.22616C109.417 4.1793 113.576 0 119.183 0C124.791 0 128.917 4.11196 128.917 9.15882V9.22616C128.917 14.2413 124.762 18.4167 119.118 18.4167C113.473 18.4167 109.417 14.3047 109.417 9.28954" fill="white"/>
<path d="M132.167 2.23536C132.167 1.08357 133.057 0.168555 134.223 0.168555C135.389 0.168555 136.311 1.08357 136.311 2.23536V3.11426C137.481 1.4568 139.159 0 141.974 0C146.053 0 148.417 2.70892 148.417 6.83853V16.386C148.417 17.5378 147.527 18.4167 146.361 18.4167C145.195 18.4167 144.269 17.5378 144.269 16.386V8.09467C144.269 5.31752 142.864 3.72427 140.398 3.72427C137.932 3.72427 136.319 5.38173 136.319 8.15888V16.386C136.319 17.5378 135.397 18.4167 134.231 18.4167C133.065 18.4167 132.175 17.5378 132.175 16.386V2.23536H132.167Z" fill="white"/>
<path d="M172.25 3.07325C172.25 1.98136 173.056 1.11393 174.112 1.11393C175.169 1.11393 176.008 1.98136 176.008 3.07325V4.80811C176.877 2.689 178.492 1.0835 180.138 1.0835C181.315 1.0835 182 1.88625 182 3.00858C182 4.03579 181.349 4.70919 180.509 4.87279C177.841 5.35215 176.008 7.47126 176.008 11.485V16.4918C176.008 17.5532 175.169 18.4168 174.112 18.4168C173.056 18.4168 172.25 17.5836 172.25 16.4918V3.07325Z" fill="white"/>
<path d="M196.397 7.95454C196.126 5.34792 194.561 3.30779 191.832 3.30779C189.314 3.30779 187.542 5.21324 187.167 7.95454H196.393H196.397ZM192.313 18.4167C187.103 18.4167 183.083 14.7048 183.083 9.25785V9.19051C183.083 4.14365 186.727 0 191.869 0C197.591 0 200.416 4.6111 200.416 8.69137C200.416 9.8283 199.533 10.6285 198.475 10.6285H187.203C187.647 13.5045 189.726 15.1089 192.381 15.1089C194.117 15.1089 195.481 14.5067 196.639 13.5718C196.946 13.3381 197.22 13.2034 197.692 13.2034C198.612 13.2034 199.327 13.9046 199.327 14.8395C199.327 15.3426 199.089 15.7744 198.782 16.0755C197.147 17.5135 195.105 18.4167 192.313 18.4167Z" fill="white"/>
<path d="M203.354 16.2977C202.921 16.0622 202.583 15.5554 202.583 14.885C202.583 13.9751 203.286 13.2369 204.224 13.2369C204.558 13.2369 204.86 13.3366 205.094 13.4723C206.803 14.6176 208.584 15.1883 210.193 15.1883C211.933 15.1883 212.943 14.45 212.943 13.2688V13.2009C212.943 11.8202 211.067 11.3493 208.985 10.7068C206.37 9.96854 203.453 8.89108 203.453 5.48709V5.41925C203.453 2.05117 206.235 0 209.756 0C211.631 0 213.61 0.538732 215.323 1.44859C215.891 1.75188 216.293 2.29061 216.293 2.99695C216.293 3.93873 215.558 4.64507 214.616 4.64507C214.282 4.64507 214.079 4.57723 213.813 4.44155C212.371 3.70329 210.896 3.2284 209.656 3.2284C208.079 3.2284 207.177 3.97066 207.177 4.98028V5.04812C207.177 6.36103 209.088 6.89977 211.167 7.57418C213.75 8.38028 216.666 9.5615 216.666 12.758V12.8258C216.666 16.565 213.785 18.4167 210.094 18.4167C207.848 18.4167 205.4 17.7103 203.354 16.2937" fill="white"/>
<path d="M219.604 16.2977C219.167 16.0622 218.833 15.5554 218.833 14.885C218.833 13.9751 219.536 13.2369 220.474 13.2369C220.808 13.2369 221.11 13.3366 221.344 13.4723C223.053 14.6176 224.834 15.1883 226.439 15.1883C228.183 15.1883 229.189 14.45 229.189 13.2688V13.2009C229.189 11.8202 227.313 11.3493 225.235 10.7068C222.62 9.96854 219.703 8.89108 219.703 5.48709V5.41925C219.703 2.05117 222.485 0 226.006 0C227.881 0 229.86 0.538732 231.573 1.44859C232.145 1.75188 232.547 2.29061 232.547 2.99695C232.547 3.93873 231.808 4.64507 230.87 4.64507C230.536 4.64507 230.333 4.57723 230.067 4.44155C228.625 3.70329 227.15 3.2284 225.91 3.2284C224.333 3.2284 223.427 3.97066 223.427 4.98028V5.04812C223.427 6.36103 225.338 6.89977 227.417 7.57418C230 8.38028 232.916 9.5615 232.916 12.758V12.8258C232.916 16.565 230.031 18.4167 226.344 18.4167C224.094 18.4167 221.646 17.7103 219.604 16.2937" fill="white"/>
<path d="M160.44 3.30921C156.976 3.30921 155.522 5.94073 155.522 9.15879V9.21031C155.522 12.7296 157.701 15.1035 160.77 15.1035C163.839 15.1035 164.768 13.7877 164.768 13.7877V10.8193H161.653C160.881 10.8193 160.256 10.1734 160.256 9.37677C160.256 8.58018 160.881 7.9223 161.653 7.9223H166.014C167.077 7.9223 167.917 8.78626 167.917 9.88008V14.0216C167.917 15.1669 167.495 15.9556 166.582 16.5144C165.174 17.4021 163.183 18.4167 160.586 18.4167C155.196 18.4167 151.667 14.5249 151.667 9.25787V9.20635C151.667 4.14543 155.146 0 160.387 0C163.041 0 164.986 0.903594 166.544 2.34221C166.835 2.64341 167.062 3.07935 167.062 3.57871C167.062 4.51401 166.379 5.21944 165.504 5.21944C165.051 5.21944 164.794 5.0847 164.499 4.85087C163.398 3.91557 162.09 3.30921 160.436 3.30921" fill="white"/>
</svg>
