<svg fill="none" height="52" viewBox="0 0 191 52" width="191" xmlns="http://www.w3.org/2000/svg"><path d="m13.7973 51.6008-4.56491-5.1692c-2.07741-2.3364-3.24292-3.1566-4.75916-3.1566-1.77525 0-2.89759 1.4083-2.89759 3.0487 0 1.6025.77701 2.6817 2.20691 3.7609.17267.1295.30217.3453.30217.6259 0 .4317-.34533.777-.777.777-.17267 0-.34534-.0647-.47484-.1727-1.75366-1.2518-2.7896671-2.6385-2.7896671-5.126 0-2.725 1.8184071-4.6944 4.2843271-4.6944h.04316c2.20692 0 3.56668 1.1655 5.8815 3.8256l3.5883 4.0469v-7.333c0-.4316.3453-.7985.777-.7985.4316 0 .777.3669.777.7985v9.1029c0 .4964-.3238.8633-.7986.8633-.3238 0-.5612-.1295-.7986-.4101z" fill="#00a3ad"/><path d="m7.87258 38.9691h-.04317c-4.24115 0-7.82941-2.5307-7.82941-6.4211 0-3.8958 3.54509-6.3563 7.78625-6.3563h.04316c4.24119 0 7.82939 2.509 7.82939 6.3995 0 3.912-3.5451 6.3779-7.78622 6.3779zm0-11.0076h-.04317c-3.30767 0-6.27 1.8184-6.27 4.6297 0 2.8328 2.89758 4.608 6.22684 4.608h.04316c3.30769 0 6.26999-1.8184 6.26999-4.6512s-2.9191-4.5865-6.22682-4.5865z" fill="#00a3ad"/><path d="m13.7973 24.0009-4.56491-5.1692c-2.07741-2.3364-3.24292-3.1566-4.75916-3.1566-1.77525 0-2.89759 1.4083-2.89759 3.0487 0 1.6026.77701 2.6817 2.20691 3.7609.17267.1295.30217.3453.30217.6259 0 .4317-.34533.777-.777.777-.17267 0-.34534-.0647-.47484-.1726-1.75366-1.2465-2.7896671-2.6332-2.7896671-5.1207 0-2.7249 1.8184071-4.6944 4.2843271-4.6944h.04316c2.20692 0 3.56668 1.1655 5.8815 3.8256l3.5883 4.047v-7.333c0-.4317.3453-.7986.777-.7986.4316 0 .777.3669.777.7986v9.1028c0 .4964-.3238.8633-.7986.8633-.3238 0-.5612-.1295-.7986-.41z" fill="#00a3ad"/><path d="m11.8119 4.10626v7.52724c0 .4964-.3454.8633-.8202.8633-.3022 0-.5396-.1079-.8202-.3237l-9.610039-7.87259c-.323752-.259-.518004-.49642-.518004-.94967 0-.51801.388503-.90651.884924-.90651h9.453619v-1.710491c0-.388503.3237-.733839.7338-.733839.3885 0 .6907.345336.6907.733839v1.710491h2.876c.4532 0 .8201.36692.8201.84176 0 .45325-.3669.82017-.8201.82017h-2.876zm-1.4299 0h-7.80788l7.80788 6.35634z" fill="#00a3ad"/><path d="m29.5263 19.6949-5.5739-15.78297c-.1187-.31296-.2374-.82557-.2374-1.21408 0-1.13852.9011-2.196116 2.3148-2.196116 1.1763 0 1.9641.782406 2.3148 1.883156l4.0038 12.56161 4.0415-12.56161c.3561-1.10075 1.214-1.883156 2.4335-1.883156h.2752c1.2141 0 2.0774.782406 2.4335 1.883156l4.0847 12.56161 4.0415-12.60477c.313-1.01982 1.0576-1.845392 2.3149-1.845392 1.2572 0 2.2392 1.019822 2.2392 2.196122 0 .35613-.1187.82557-.1942 1.06299l-5.6549 15.93945c-.5126 1.4515-1.4946 2.1205-2.6332 2.1205h-.1564c-1.1817 0-2.1584-.669-2.5901-2.0396l-4.0415-12.32958-4.0847 12.32958c-.4316 1.3759-1.4137 2.0396-2.5522 2.0396h-.1565c-1.1763 0-2.1583-.669-2.6278-2.1205" fill="#003e51"/><path d="m70.3838 14.0024v-1.4138c-1.2141-.4694-2.8274-.8255-4.7106-.8255-3.0648 0-4.8671 1.295-4.8671 3.4533v.081c0 2.0018 1.7645 3.1404 4.0415 3.1404 3.1404 0 5.5362-1.8077 5.5362-4.4354zm-14.2127 1.4946v-.0809c0-4.4732 3.4911-6.67472 8.5578-6.67472 2.3149 0 3.966.35613 5.574.86334v-.50721c0-2.94615-1.8076-4.51635-5.1423-4.51635-1.8076 0-3.2969.31296-4.5919.82557-.2752.08094-.5126.11871-.7446.11871-1.1008 0-2.0019-.86334-2.0019-1.9641 0-.86334.5882-1.60797 1.295-1.88316 1.9641-.744628 3.966-1.214069 6.6747-1.214069 3.1027 0 5.4175.825569 6.869 2.314829 1.5324 1.48926 2.2393 3.69078 2.2393 6.39951v10.20895c0 1.2951-1.0199 2.2771-2.3149 2.2771-1.3759 0-2.3148-.9443-2.3148-2.0019v-.7824c-1.4137 1.6889-3.5721 3.0217-6.7502 3.0217-3.8851 0-7.3438-2.2393-7.3438-6.3995" fill="#003e51"/><path d="m108.565 9.64253c-.313-3.06486-2.121-5.45523-5.261-5.45523-2.903 0-4.948 2.23929-5.3797 5.45523zm-4.711 12.28637c-6.0052 0-10.6403-4.3598-10.6403-10.7539v-.081c0-5.93005 4.2034-10.797125 10.1283-10.797125 6.594 0 9.853 5.417455 9.853 10.209025 0 1.3328-1.02 2.277-2.24 2.277h-12.9983c.5072 3.3778 2.9083 5.261 5.9683 5.261 2.001 0 3.572-.7069 4.904-1.8076.357-.2752.669-.4317 1.214-.4317 1.063 0 1.884.8256 1.884 1.9209 0 .5882-.276 1.1008-.632 1.4515-1.883 1.6889-4.241 2.7465-7.457 2.7465" fill="#003e51"/><path d="m117.522 2.89228c0-1.33278 1.02-2.395769 2.353-2.395769 1.332 0 2.395 1.057589 2.395 2.395769v2.12058c1.101-2.59002 3.141-4.55412 5.224-4.55412 1.489 0 2.358.98205 2.358 2.3526 0 1.25724-.826 2.08281-1.884 2.27706-3.377.58815-5.692 3.17817-5.692 8.0884v6.1243c0 1.295-1.058 2.358-2.396 2.358s-2.353-1.0198-2.353-2.358v-16.40882z" fill="#003e51"/><path d="m80.7224 15.7398v-10.92124h-2.7357c-1.1386 0-2.0397-.90111-2.0397-2.03964s.9011-2.045033 2.0397-2.045033h11.218c1.1385 0 2.0828.901113 2.0828 2.045033 0 1.14393-.9443 2.03964-2.0828 2.03964h-3.734v10.17664c0 1.8454.9443 2.5954 2.5523 2.5954.5504 0 1.0198-.1187 1.1763-.1187 1.063 0 2.0019.8633 2.0019 1.9641 0 .8633-.5882 1.5702-1.2573 1.8454-1.0198.3507-2.0019.5504-3.2591.5504-3.4965 0-5.9678-1.5325-5.9678-6.0866" fill="#003e51"/><g fill="#00a3ad"><path d="m23.715 40.9007v-.0809c0-5.8869 4.5541-10.8349 10.7971-10.8349 3.2591 0 5.4984 1.063 7.2629 2.59.3129.2752.7446.8633.7446 1.6457 0 1.2195-.9821 2.1584-2.1961 2.1584-.5882 0-1.1008-.2374-1.4138-.4695-1.214-1.0198-2.5522-1.7644-4.4354-1.7644-3.4533 0-6.0056 2.9839-6.0056 6.5937v.0756c0 3.6908 2.5523 6.6369 6.2053 6.6369 1.8831 0 3.3346-.7446 4.635-1.8454.2752-.2374.7447-.5126 1.2951-.5126 1.1385 0 2.0396.9443 2.0396 2.0828 0 .6259-.2374 1.1385-.6691 1.4947-1.8454 1.7644-4.0847 2.9461-7.538 2.9461-6.1621 0-10.7162-4.8293-10.7162-10.7162"/><path d="m62.5975 40.9007v-.0809c0-3.653-2.6278-6.6747-6.3563-6.6747-3.7286 0-6.243 2.9839-6.243 6.5938v.0755c0 3.6098 2.6331 6.6369 6.3239 6.6369s6.2808-2.9839 6.2808-6.556m-17.3531 0v-.0809c0-5.9301 4.7106-10.8349 11.0723-10.8349 6.3618 0 11.0292 4.8293 11.0292 10.7594v.0755c0 5.8869-4.7106 10.7972-11.1101 10.7972s-10.9968-4.8294-10.9968-10.7163"/><path d="m71.6735 32.5803c0-1.3328 1.0198-2.3958 2.358-2.3958 1.3381 0 2.3957 1.0576 2.3957 2.3958v1.0198c1.3382-1.921 3.2591-3.6099 6.4805-3.6099 4.6728 0 7.3815 3.1404 7.3815 7.932v11.0723c0 1.3328-1.0198 2.358-2.3526 2.358s-2.3957-1.0198-2.3957-2.358v-9.6154c0-3.2214-1.608-5.0668-4.4355-5.0668-2.8274 0-4.6728 1.921-4.6728 5.1423v9.5399c0 1.3328-1.0576 2.358-2.3957 2.358-1.3382 0-2.358-1.0198-2.358-2.358v-16.4088z"/><path d="m118.439 32.5803c0-1.3328 1.02-2.3958 2.353-2.3958s2.396 1.0576 2.396 2.3958v2.1205c1.101-2.59 3.14-4.5541 5.223-4.5541 1.489 0 2.358.9821 2.358 2.3526 0 1.2573-.826 2.0828-1.883 2.2771-3.378.5881-5.693 3.1782-5.693 8.0884v6.1243c0 1.295-1.057 2.358-2.396 2.358-1.338 0-2.352-1.0198-2.352-2.358v-16.4088z"/><path d="m147.577 39.3305c-.313-3.0648-2.12-5.4552-5.261-5.4552-2.903 0-4.948 2.2393-5.38 5.4552zm-4.711 12.2864c-6.005 0-10.64-4.3598-10.64-10.754v-.0809c0-5.9301 4.203-10.7971 10.128-10.7971 6.594 0 9.853 5.4174 9.853 10.209 0 1.3327-1.02 2.277-2.24 2.277h-12.998c.507 3.3778 2.908 5.261 5.968 5.261 2.002 0 3.572-.7069 4.904-1.8076.357-.2752.67-.4317 1.215-.4317 1.063 0 1.883.8256 1.883 1.9209 0 .5882-.275 1.1008-.632 1.4515-1.883 1.6889-4.241 2.7465-7.457 2.7465"/><path d="m155.687 49.0646c-.507-.2752-.901-.8634-.901-1.6512 0-1.0576.826-1.9209 1.921-1.9209.394 0 .745.1187 1.02.2752 2.002 1.3328 4.084 2.0019 5.968 2.0019 2.039 0 3.221-.8634 3.221-2.2393v-.0756c0-1.6079-2.196-2.1583-4.635-2.9083-3.065-.8634-6.481-2.1206-6.481-6.0866v-.0809c0-3.9228 3.26-6.3186 7.382-6.3186 2.196 0 4.516.6259 6.518 1.6889.669.3561 1.139.9821 1.139 1.8076 0 1.1008-.864 1.921-1.964 1.921-.389 0-.632-.0756-.939-.2375-1.689-.8633-3.416-1.4137-4.867-1.4137-1.846 0-2.903.8634-2.903 2.0397v.0755c0 1.5324 2.239 2.1584 4.673 2.9462 3.021.9442 6.437 2.3148 6.437 6.0487v.0756c0 4.3598-3.378 6.5182-7.695 6.5182-2.627 0-5.498-.8256-7.894-2.4713"/><path d="m174.896 49.0646c-.512-.2752-.901-.8634-.901-1.6512 0-1.0576.826-1.9209 1.921-1.9209.394 0 .745.1187 1.02.2752 2.002 1.3328 4.085 2.0019 5.968 2.0019 2.039 0 3.221-.8634 3.221-2.2393v-.0756c0-1.6079-2.196-2.1583-4.629-2.9083-3.065-.8634-6.481-2.1206-6.481-6.0866v-.0809c0-3.9228 3.259-6.3186 7.382-6.3186 2.196 0 4.516.6259 6.518 1.6889.669.3561 1.138.9821 1.138 1.8076 0 1.1008-.863 1.921-1.964 1.921-.388 0-.626-.0756-.939-.2375-1.689-.8633-3.415-1.4137-4.867-1.4137-1.845 0-2.908.8634-2.908 2.0397v.0755c0 1.5324 2.239 2.1584 4.673 2.9462 3.021.9442 6.437 2.3148 6.437 6.0487v.0756c0 4.3598-3.378 6.5182-7.694 6.5182-2.634 0-5.499-.8256-7.895-2.4713"/><path d="m105.306 33.8699c-4.198 0-5.9625 3.0919-5.9625 6.869v.0593c0 4.1279 2.6445 6.9175 6.3615 6.9175 3.718 0 4.846-1.5432 4.846-1.5432v-3.4857h-3.777c-.934 0-1.695-.7554-1.695-1.6943s.761-1.7051 1.695-1.7051h5.288c1.289 0 2.309 1.0144 2.309 2.2986v4.8617c0 1.3436-.507 2.2717-1.619 2.9246-1.705 1.0468-4.122 2.2339-7.273 2.2339-6.5402 0-10.8191-4.5649-10.8191-10.754v-.0594c0-5.9462 4.2196-10.8133 10.5811-10.8133 3.222 0 5.58 1.063 7.468 2.7465.351.3561.626.8687.626 1.4515 0 1.1007-.826 1.9263-1.889 1.9263-.55 0-.863-.1565-1.219-.4317-1.333-1.1007-2.925-1.813-4.926-1.813"/></g></svg>